<svg id="Layer_1" data-name="Layer 1" xmlns="http://www.w3.org/2000/svg" viewBox="0 0 161.15 90.92"><defs><style>.cls-1{fill:#f4783b;}.cls-2,.cls-3{fill:#1e2e3f;}.cls-3{stroke:#1e2e3f;stroke-miterlimit:10;stroke-width:0.25px;}</style></defs><title>Artboard 2</title><path class="cls-1" d="M65.81,28.29C58.93,40.29,52.17,52.08,45.34,64a7.22,7.22,0,0,1-.64-.78C41.65,58,38.62,52.66,35.55,47.38a2.47,2.47,0,0,1,0-2.72c2.85-4.92,5.71-9.84,8.52-14.79a2.83,2.83,0,0,1,2.79-1.58c5.8.05,11.61,0,17.41,0Z"/><path class="cls-2" d="M111.26,28.05c.35.51.58.79.76,1.11,3,5.12,5.89,10.26,8.87,15.38a2.7,2.7,0,0,1,0,2.94l-8.52,14.93a2.34,2.34,0,0,1-2.12,1.38c-6.19,0-12.37,0-18.55-.06-.21,0-.43,0-.89-.1Z"/><path class="cls-1" d="M69.35,65.85h41c-1,1.71-1.86,3.29-2.77,4.85-2.26,3.9-4.55,7.77-6.79,11.67a2.3,2.3,0,0,1-2.15,1.3l-17.75.11a2.29,2.29,0,0,1-2.14-1.17q-4.49-7.85-9-15.71A8.76,8.76,0,0,1,69.35,65.85Z"/><path class="cls-1" d="M79.36,8.44c.63,0,1-.07,1.34-.07,5.84,0,11.69,0,17.53,0a2.69,2.69,0,0,1,2.62,1.49q4.22,7.36,8.47,14.7a2.58,2.58,0,0,1,.07,2.75q-4.68,8.19-9.37,16.36a2.46,2.46,0,0,1-.31.26Z"/><path class="cls-2" d="M46.33,26.2c.24-.5.38-.87.57-1.21,2.91-5,5.84-10,8.72-15.07a2.8,2.8,0,0,1,2.7-1.57c5.62,0,11.24,0,16.86,0A2.75,2.75,0,0,1,77.85,9.8c3.11,5.42,6.24,10.82,9.46,16.4Z"/><path class="cls-2" d="M77.14,83.73H74.89c-5.66,0-11.31,0-17,0a2.17,2.17,0,0,1-2.08-1.18c-2.88-5-5.75-10-8.67-15a2.51,2.51,0,0,1,0-2.8c3-5.18,5.94-10.39,8.91-15.59.16-.29.35-.57.66-1.07C63.54,60,70.26,71.7,77.14,83.73Z"/><path class="cls-3" d="M81.05,80.68l.22-.25a2.17,2.17,0,0,0,1.6.66c.67,0,1.13-.37,1.13-.88v0c0-.47-.25-.74-1.26-1s-1.51-.58-1.51-1.25h0a1.3,1.3,0,0,1,1.44-1.18,2.21,2.21,0,0,1,1.53.55l-.22.26a1.89,1.89,0,0,0-1.33-.51c-.65,0-1.09.38-1.09.84v0c0,.47.24.76,1.3,1s1.47.58,1.47,1.23v0c0,.72-.62,1.21-1.48,1.21A2.55,2.55,0,0,1,81.05,80.68Z"/><path class="cls-3" d="M85.42,76.87H87c1,0,1.66.5,1.66,1.36h0c0,.94-.81,1.43-1.74,1.43H85.75v1.66h-.33ZM87,79.36c.83,0,1.39-.43,1.39-1.1h0c0-.71-.54-1.08-1.35-1.08H85.75v2.19Z"/><path class="cls-3" d="M89.61,79.47v-2.6h.33v2.57a1.46,1.46,0,0,0,1.51,1.66c.91,0,1.49-.55,1.49-1.63v-2.6h.33v2.57a1.83,1.83,0,1,1-3.66,0Z"/><path class="cls-3" d="M94.52,76.87H96.4a1.72,1.72,0,0,1,1.25.44,1.18,1.18,0,0,1,.34.83h0c0,.74-.55,1.17-1.31,1.27l1.48,1.91h-.42l-1.43-1.85H94.85v1.85h-.33Zm1.84,2.31c.74,0,1.3-.37,1.3-1h0c0-.6-.47-1-1.28-1H94.85v2Z"/></svg>