<svg width="150" height="263" viewBox="0 0 150 263" fill="none" xmlns="http://www.w3.org/2000/svg">
<g clip-path="url(#clip0_84_86)">
<path d="M8.40152 102.191C8.40152 101.195 10.5248 100.763 11.9416 100.763H138.822C140.239 100.763 140.529 101.198 140.529 102.191V237.42C140.529 238.416 139.934 239.603 138.677 240.061L77.9654 262.256C76.7052 262.714 74.7538 262.718 73.4897 262.267L11.1205 240.05C9.8565 239.595 8.39771 238.412 8.39771 237.42V102.191H8.40152Z" fill="#F7F7F7"/>
<path opacity="0.42" d="M135.993 149.114V133.595H13.1636L135.993 149.114Z" fill="#E0E0E0"/>
<path d="M144.085 126.912C144.085 126.912 83.071 147.072 6.08716 126.912V87.6832C77.1022 106.16 144.085 87.6832 144.085 87.6832V126.912Z" fill="white"/>
<path d="M144.085 87.6832V126.912C144.085 126.912 116.963 135.87 76.0788 135.87C55.6327 135.87 31.7498 133.63 6.08719 126.912V87.6832C29.7563 93.8435 52.9825 95.8969 73.4247 95.8969C114.313 95.8969 144.081 87.6832 144.081 87.6832M150.031 79.874L142.5 81.9504C142.179 82.0381 112.915 89.9504 73.4247 89.9504C50.1909 89.9504 28.0379 87.2519 7.58418 81.9313L0.137451 79.9885V131.5L4.57876 132.664C27.7744 138.737 51.8292 141.817 76.0788 141.817C117.444 141.817 144.806 132.935 145.952 132.557L150.034 131.21V79.874H150.031Z" fill="#F7F7F7"/>
<path d="M28.8933 103.019C29.3057 103.095 29.6838 103.252 30.0237 103.481C30.3635 103.71 30.6461 103.981 30.8638 104.294C31.0853 104.607 31.2457 104.958 31.345 105.355C31.4443 105.752 31.4595 106.153 31.387 106.561C30.6843 110.531 29.9816 114.5 29.279 118.469C29.2064 118.878 29.0499 119.252 28.8131 119.588C28.5725 119.924 28.2861 120.202 27.9538 120.424C27.6178 120.645 27.2397 120.794 26.8158 120.874C26.3919 120.954 25.9566 120.954 25.5136 120.87C22.2523 120.252 18.9987 119.576 15.7527 118.84C15.3135 118.74 14.9125 118.569 14.5574 118.324C14.1984 118.08 13.9044 117.79 13.679 117.45C13.4499 117.111 13.2972 116.744 13.2208 116.34C13.1444 115.939 13.1559 115.538 13.2513 115.134C14.1946 111.214 15.134 107.294 16.0773 103.374C16.1727 102.969 16.3446 102.607 16.5852 102.282C16.8258 101.958 17.116 101.698 17.4521 101.5C17.7881 101.305 18.1585 101.168 18.5633 101.095C18.9681 101.019 19.3767 101.031 19.7854 101.122C22.8137 101.809 25.8497 102.443 28.8971 103.019H28.8933ZM26.4989 107.05C24.4443 106.649 22.3936 106.221 20.3467 105.767C19.6746 108.809 19.0025 111.851 18.3304 114.889C20.4498 115.359 22.5769 115.802 24.704 116.218C25.3036 113.16 25.8993 110.103 26.4989 107.05Z" fill="#122F4C"/>
<path d="M49.7174 106.218C49.8014 106.321 49.8396 106.443 49.8243 106.58C49.7059 107.718 49.5875 108.851 49.4691 109.989C49.4539 110.126 49.3928 110.237 49.2858 110.321C49.1789 110.405 49.0529 110.439 48.9116 110.424C45.952 110.111 43 109.744 40.0519 109.328C39.9641 109.317 39.9144 109.344 39.9068 109.412C39.7731 110.347 39.6433 111.279 39.5096 112.214C39.4982 112.302 39.5364 112.347 39.6242 112.363C41.8849 112.683 44.1495 112.969 46.4179 113.233C46.5592 113.248 46.6699 113.309 46.7501 113.416C46.8303 113.523 46.8609 113.641 46.8456 113.779C46.7234 114.855 46.6012 115.927 46.4828 117.004C46.4675 117.141 46.4103 117.252 46.3072 117.336C46.204 117.42 46.0818 117.454 45.9367 117.439C43.634 117.176 41.3312 116.882 39.0323 116.557C38.9406 116.546 38.891 116.58 38.8795 116.668C38.6046 118.595 38.3334 120.523 38.0585 122.45C38.0126 122.775 37.8141 122.912 37.4627 122.863C36.1834 122.679 34.9079 122.485 33.6286 122.282C33.2773 122.225 33.1284 122.038 33.178 121.71C34.0831 116.053 34.9919 110.401 35.897 104.744C35.9505 104.42 36.1376 104.282 36.466 104.336C40.7584 105.015 45.0622 105.584 49.3775 106.042C49.515 106.057 49.6295 106.118 49.7136 106.221L49.7174 106.218Z" fill="#122F4C"/>
<path d="M66.2987 107.412C66.3904 107.511 66.4362 107.63 66.4285 107.767C66.3827 108.908 66.3407 110.05 66.2949 111.191C66.2911 111.328 66.2376 111.443 66.1345 111.534C66.0314 111.626 65.913 111.668 65.7717 111.664C62.8045 111.542 59.8372 111.37 56.87 111.149C56.7822 111.141 56.7364 111.172 56.7287 111.24C56.6562 112.179 56.5874 113.122 56.5149 114.061C56.5072 114.149 56.5492 114.195 56.6409 114.202C58.9131 114.374 61.1891 114.515 63.469 114.626C63.6141 114.634 63.7248 114.687 63.8127 114.786C63.8967 114.885 63.9387 115.004 63.931 115.141C63.8814 116.221 63.8279 117.301 63.7783 118.382C63.7706 118.519 63.721 118.634 63.6255 118.725C63.5301 118.817 63.4079 118.859 63.2627 118.851C60.9485 118.737 58.6381 118.595 56.3277 118.42C56.2361 118.412 56.1864 118.454 56.1826 118.538C56.0337 120.481 55.8886 122.42 55.7396 124.363C55.7167 124.691 55.5258 124.84 55.1706 124.813C53.8837 124.714 52.6006 124.603 51.3136 124.485C50.9585 124.45 50.7981 124.271 50.8286 123.943C51.3633 118.24 51.9017 112.538 52.4363 106.836C52.4669 106.508 52.6464 106.359 52.9786 106.389C57.2977 106.786 61.6245 107.072 65.9512 107.248C66.0887 107.252 66.2071 107.305 66.2987 107.405V107.412Z" fill="#122F4C"/>
<path d="M73.4781 125.126C73.4781 125.454 73.2948 125.618 72.9397 125.614C71.6527 125.599 70.362 125.573 69.075 125.538C68.7199 125.531 68.548 125.359 68.5557 125.031C68.7199 119.305 68.8841 113.58 69.0445 107.855C69.0521 107.527 69.224 107.366 69.5562 107.374C70.7591 107.405 71.9621 107.431 73.165 107.443C73.4972 107.447 73.6614 107.614 73.6576 107.943C73.5965 113.668 73.5392 119.397 73.4781 125.122V125.126Z" fill="#122F4C"/>
<path d="M82.5442 111.935C82.4487 112.023 82.4029 112.137 82.4067 112.275C82.4716 115.076 82.5366 117.878 82.6015 120.683C82.6015 120.821 82.6588 120.931 82.7619 121.015C82.865 121.099 82.991 121.141 83.1361 121.137C86.0843 121.061 89.0324 120.939 91.9767 120.767C92.1257 120.76 92.2517 120.798 92.3586 120.889C92.4655 120.977 92.5228 121.092 92.5305 121.229C92.5992 122.37 92.6679 123.508 92.7367 124.649C92.7443 124.786 92.6985 124.908 92.603 125.008C92.5075 125.111 92.3815 125.164 92.2326 125.172C90.285 125.286 88.3336 125.378 86.3821 125.45C84.7782 125.508 83.1705 125.553 81.5666 125.584C81.3986 125.584 81.2305 125.592 81.0625 125.592C80.6157 125.599 80.188 125.527 79.787 125.378C79.3822 125.229 79.0309 125.015 78.733 124.74C78.4313 124.466 78.1984 124.145 78.0303 123.771C77.8623 123.401 77.7745 123.008 77.7745 122.592C77.7745 122.435 77.7745 122.279 77.7745 122.126C77.7745 121.496 77.7668 120.863 77.763 120.233C77.7516 118.218 77.7401 116.202 77.7325 114.187C77.7325 113.626 77.7248 113.061 77.7248 112.5C77.7248 111.832 77.7172 111.168 77.7134 110.5C77.7134 110.084 77.7898 109.691 77.9425 109.317C78.0991 108.943 78.3129 108.622 78.5917 108.351C78.8705 108.08 79.1951 107.863 79.5693 107.691C79.9436 107.523 80.3369 107.435 80.757 107.427C80.9136 107.427 81.0701 107.424 81.2267 107.42C84.5491 107.355 87.8677 107.229 91.1824 107.034C91.3237 107.027 91.4421 107.069 91.5452 107.156C91.6483 107.244 91.7018 107.359 91.7094 107.496C91.7781 108.637 91.8469 109.775 91.9156 110.916C91.9233 111.053 91.8813 111.176 91.7896 111.275C91.698 111.374 91.5796 111.431 91.4383 111.439C88.5971 111.603 85.752 111.725 82.9032 111.794C82.7619 111.794 82.6435 111.843 82.548 111.931L82.5442 111.935Z" fill="#122F4C"/>
<path d="M102.081 123.924C102.112 124.252 101.951 124.431 101.596 124.466C100.313 124.584 99.0262 124.695 97.7431 124.798C97.3879 124.824 97.2008 124.676 97.1741 124.347C96.7349 118.637 96.2996 112.927 95.8604 107.218C95.8337 106.889 95.9864 106.714 96.3187 106.687C97.5178 106.592 98.7169 106.489 99.916 106.378C100.244 106.347 100.428 106.496 100.458 106.821C101.001 112.523 101.539 118.225 102.081 123.927V123.924Z" fill="#122F4C"/>
<path d="M116.707 104.252C117.124 104.187 117.529 104.202 117.926 104.305C118.323 104.408 118.678 104.565 118.991 104.786C119.304 105.004 119.575 105.282 119.805 105.622C120.034 105.962 120.183 106.332 120.255 106.744C121.088 111.553 121.916 116.363 122.749 121.168C122.772 121.305 122.741 121.427 122.657 121.538C122.573 121.649 122.455 121.718 122.306 121.744C121.023 121.962 119.736 122.172 118.453 122.374C118.304 122.397 118.17 122.37 118.056 122.29C117.937 122.214 117.868 122.103 117.849 121.966C117.613 120.435 117.376 118.905 117.143 117.374C117.12 117.237 117.059 117.13 116.952 117.05C116.845 116.969 116.723 116.939 116.578 116.962C114.783 117.237 112.984 117.489 111.185 117.725C111.04 117.744 110.922 117.809 110.834 117.916C110.746 118.023 110.712 118.145 110.727 118.282C110.926 119.817 111.124 121.355 111.323 122.889C111.365 123.214 111.208 123.401 110.857 123.447C109.578 123.611 108.295 123.763 107.011 123.908C106.656 123.947 106.465 123.805 106.427 123.477C105.889 118.626 105.35 113.779 104.812 108.927C104.766 108.515 104.8 108.115 104.919 107.729C105.033 107.344 105.217 107 105.465 106.702C105.713 106.405 106.015 106.153 106.366 105.943C106.721 105.737 107.103 105.607 107.519 105.553C110.586 105.176 113.649 104.74 116.707 104.252ZM116.471 113.038C116.238 111.534 116.009 110.027 115.776 108.523C113.713 108.84 111.648 109.134 109.578 109.401C109.772 110.912 109.967 112.42 110.166 113.931C112.27 113.66 114.374 113.363 116.471 113.038Z" fill="#122F4C"/>
<path d="M138.601 113.912C138.746 113.878 138.872 113.897 138.987 113.966C139.097 114.038 139.17 114.141 139.204 114.275C139.471 115.385 139.739 116.496 140.006 117.607C140.037 117.74 140.021 117.866 139.953 117.981C139.884 118.095 139.777 118.172 139.628 118.206C135.676 119.145 131.712 119.996 127.732 120.76C127.381 120.828 127.175 120.698 127.114 120.374C126.048 114.748 124.979 109.118 123.914 103.492C123.852 103.168 123.986 102.977 124.311 102.916C125.498 102.687 126.682 102.454 127.866 102.21C128.191 102.141 128.389 102.271 128.454 102.592C129.325 106.767 130.196 110.943 131.066 115.118C131.093 115.256 131.166 115.355 131.284 115.416C131.402 115.481 131.532 115.496 131.677 115.466C133.991 114.981 136.298 114.462 138.605 113.912H138.601Z" fill="#122F4C"/>
<path d="M150.126 79.8626L142.523 76.0954L142.439 0H6.87389L7.019 76.7023L0.0419922 80.1603L7.019 85.0038V85.1107H7.17558L7.60328 85.4084L7.63384 85.1107H9.98624C9.98624 85.1107 75.0668 104.641 141.537 85.4084H142.53V85.126C142.53 85.126 142.561 85.1183 142.572 85.1145L150.13 79.8664L150.126 79.8626Z" fill="#F7F7F7"/>
<path d="M33.5828 214.286C33.9532 214.443 34.2702 214.656 34.5375 214.931C34.8048 215.206 35.0186 215.523 35.1829 215.885C35.3471 216.244 35.4273 216.634 35.4273 217.046V221.889C35.4273 222.302 35.3471 222.691 35.1829 223.061C35.0186 223.431 34.8048 223.752 34.5375 224.027C34.2702 224.302 33.9532 224.515 33.5828 224.672C33.2123 224.828 32.8228 224.905 32.4104 224.905H22.1263C21.7978 224.905 21.6375 224.74 21.6375 224.416V221.298C21.6375 221.16 21.6833 221.046 21.7787 220.95C21.8742 220.855 21.9888 220.809 22.1263 220.809H30.8905C31.028 220.809 31.1425 220.767 31.238 220.679C31.3335 220.595 31.3793 220.481 31.3793 220.343V218.206C31.3793 218.069 31.3335 217.954 31.238 217.859C31.1425 217.763 31.028 217.718 30.8905 217.718H24.6543C24.2419 217.718 23.8524 217.641 23.4819 217.485C23.1115 217.328 22.7907 217.114 22.5158 216.84C22.2408 216.565 22.027 216.248 21.8704 215.885C21.7138 215.523 21.6375 215.137 21.6375 214.725V209.882C21.6375 209.469 21.7138 209.08 21.8704 208.71C22.0232 208.34 22.2408 208.023 22.5158 207.756C22.7907 207.489 23.1115 207.275 23.4819 207.111C23.8524 206.947 24.2419 206.866 24.6543 206.866H34.3694C34.694 206.866 34.8583 207.031 34.8583 207.355V210.523C34.8583 210.66 34.8124 210.771 34.717 210.859C34.6215 210.947 34.5069 210.989 34.3694 210.989H26.1475C26.01 210.989 25.8993 211.034 25.8114 211.13C25.7236 211.225 25.6816 211.34 25.6816 211.477V213.565C25.6816 213.702 25.7236 213.817 25.8114 213.912C25.8955 214.008 26.01 214.053 26.1475 214.053H32.4104C32.8228 214.053 33.2123 214.13 33.5828 214.286Z" fill="#122F4C"/>
<path d="M52.9902 207.011C53.0856 207.107 53.1315 207.221 53.1315 207.359V210.603C53.1315 210.74 53.0856 210.851 52.9902 210.939C52.8947 211.027 52.7801 211.069 52.6426 211.069H44.0083C43.9204 211.069 43.8784 211.111 43.8784 211.198V214.008C43.8784 214.076 43.9204 214.111 44.0083 214.111H51.3786C51.5161 214.111 51.6268 214.157 51.7147 214.252C51.7987 214.347 51.8445 214.462 51.8445 214.599V217.176C51.8445 217.313 51.8025 217.431 51.7147 217.523C51.6268 217.618 51.5161 217.664 51.3786 217.664H44.0083C43.9204 217.664 43.8784 217.706 43.8784 217.794V220.576C43.8784 220.664 43.9204 220.706 44.0083 220.706H52.6426C52.7801 220.706 52.8947 220.752 52.9902 220.847C53.0856 220.943 53.1315 221.057 53.1315 221.195V224.416C53.1315 224.553 53.0856 224.668 52.9902 224.763C52.8947 224.859 52.7801 224.905 52.6426 224.905H39.8343C39.5058 224.905 39.3455 224.74 39.3455 224.416V207.363C39.3455 207.225 39.3913 207.111 39.4868 207.015C39.5822 206.92 39.6968 206.874 39.8343 206.874H52.6426C52.7801 206.874 52.8947 206.92 52.9902 207.015V207.011Z" fill="#122F4C"/>
<path d="M69.3424 206.87C69.7548 206.87 70.1444 206.95 70.5148 207.114C70.8852 207.279 71.2022 207.492 71.4695 207.76C71.7368 208.027 71.9507 208.343 72.1149 208.714C72.2791 209.084 72.3593 209.473 72.3593 209.885V224.412C72.3593 224.55 72.3135 224.664 72.218 224.76C72.1225 224.855 72.0079 224.901 71.8705 224.901H68.2884C68.1509 224.901 68.0364 224.855 67.9409 224.76C67.8454 224.664 67.7996 224.55 67.7996 224.412V219.802C67.7996 219.664 67.7576 219.55 67.6697 219.454C67.5819 219.359 67.4712 219.313 67.3337 219.313H62.2317C62.0943 219.313 61.9797 219.359 61.8842 219.454C61.7887 219.55 61.7429 219.664 61.7429 219.802V224.412C61.7429 224.74 61.5787 224.901 61.2541 224.901H57.6988C57.3742 224.901 57.21 224.737 57.21 224.412V209.885C57.21 209.473 57.2863 209.084 57.4429 208.714C57.5995 208.343 57.8133 208.027 58.0883 207.76C58.3633 207.492 58.684 207.279 59.0545 207.114C59.4249 206.95 59.8144 206.87 60.2268 206.87H69.35H69.3424ZM67.7958 215.447V210.912H61.7391V215.447H67.7958Z" fill="#122F4C"/>
<path d="M88.2991 214.286C88.6695 214.443 88.9865 214.656 89.2538 214.931C89.5211 215.206 89.735 215.523 89.8992 215.885C90.0634 216.244 90.1436 216.634 90.1436 217.046V221.889C90.1436 222.302 90.0634 222.691 89.8992 223.061C89.735 223.431 89.5211 223.752 89.2538 224.027C88.9865 224.302 88.6695 224.515 88.2991 224.672C87.9286 224.828 87.5391 224.905 87.1267 224.905H76.8426C76.5142 224.905 76.3538 224.74 76.3538 224.416V221.298C76.3538 221.16 76.3996 221.046 76.4951 220.95C76.5905 220.855 76.7051 220.809 76.8426 220.809H85.6068C85.7443 220.809 85.8588 220.767 85.9543 220.679C86.0498 220.595 86.0956 220.481 86.0956 220.343V218.206C86.0956 218.069 86.0498 217.954 85.9543 217.859C85.8588 217.763 85.7443 217.718 85.6068 217.718H79.3706C78.9582 217.718 78.5687 217.641 78.1983 217.485C77.8278 217.328 77.507 217.114 77.2321 216.84C76.9571 216.565 76.7433 216.248 76.5867 215.885C76.4301 215.523 76.3538 215.137 76.3538 214.725V209.882C76.3538 209.469 76.4301 209.08 76.5867 208.71C76.7395 208.34 76.9571 208.023 77.2321 207.756C77.507 207.489 77.8278 207.275 78.1983 207.111C78.5687 206.947 78.9582 206.866 79.3706 206.866H89.0858C89.4142 206.866 89.5746 207.031 89.5746 207.355V210.523C89.5746 210.66 89.5287 210.771 89.4333 210.859C89.3378 210.947 89.2232 210.989 89.0858 210.989H80.8638C80.7263 210.989 80.6156 211.034 80.5277 211.13C80.4437 211.225 80.3979 211.34 80.3979 211.477V213.565C80.3979 213.702 80.4399 213.817 80.5277 213.912C80.6118 214.008 80.7263 214.053 80.8638 214.053H87.1267C87.5391 214.053 87.9286 214.13 88.2991 214.286Z" fill="#122F4C"/>
<path d="M106.144 206.87C106.557 206.87 106.946 206.95 107.317 207.114C107.687 207.279 108.004 207.492 108.272 207.76C108.539 208.027 108.753 208.343 108.917 208.714C109.081 209.084 109.161 209.473 109.161 209.885V221.889C109.161 222.301 109.081 222.691 108.917 223.061C108.753 223.431 108.539 223.752 108.272 224.027C108.004 224.302 107.687 224.515 107.317 224.672C106.946 224.828 106.557 224.905 106.144 224.905H97.0213C96.6088 224.905 96.2193 224.828 95.8489 224.672C95.4785 224.515 95.1577 224.302 94.8827 224.027C94.6078 223.752 94.3939 223.431 94.2373 223.061C94.0846 222.691 94.0044 222.301 94.0044 221.889V209.885C94.0044 209.473 94.0808 209.084 94.2373 208.714C94.3939 208.343 94.6078 208.027 94.8827 207.76C95.1577 207.492 95.4785 207.279 95.8489 207.114C96.2193 206.95 96.6088 206.87 97.0213 206.87H106.144ZM104.598 211.248H98.5412V220.523H104.598V211.248Z" fill="#122F4C"/>
<path d="M128.221 207.011C128.317 207.107 128.362 207.221 128.362 207.359V224.412C128.362 224.55 128.317 224.664 128.221 224.76C128.126 224.855 128.011 224.901 127.874 224.901H124.162C124.024 224.901 123.887 224.863 123.749 224.786C123.612 224.71 123.509 224.611 123.44 224.489L117.742 213.977V224.408C117.742 224.737 117.578 224.897 117.253 224.897H113.698C113.37 224.897 113.209 224.733 113.209 224.408V207.355C113.209 207.031 113.373 206.866 113.698 206.866H117.356C117.494 206.866 117.631 206.905 117.769 206.981C117.906 207.057 118.01 207.156 118.078 207.279L123.799 217.813V207.355C123.799 207.218 123.845 207.103 123.94 207.008C124.036 206.912 124.15 206.866 124.288 206.866H127.87C128.007 206.866 128.122 206.912 128.217 207.008L128.221 207.011Z" fill="#122F4C"/>
<path d="M30.8828 60.1145C30.9897 60.1603 31.0814 60.2252 31.1578 60.3015C31.2341 60.3779 31.2952 60.4695 31.3449 60.5763C31.3945 60.6832 31.4136 60.7939 31.4136 60.9122V65.0916C31.4136 65.1298 31.3983 65.1641 31.3716 65.1908C31.3449 65.2176 31.3105 65.2328 31.2723 65.2328H30.2412C30.203 65.2328 30.1687 65.2176 30.1458 65.1908C30.1229 65.1641 30.1076 65.1298 30.1076 65.0916V61.3054H29.2789V65.0916C29.2789 65.1298 29.2674 65.1641 29.2407 65.1908C29.214 65.2176 29.1834 65.2328 29.1452 65.2328H28.2096C28.1714 65.2328 28.1371 65.2176 28.1103 65.1908C28.0836 65.1641 28.0683 65.1298 28.0683 65.0916V61.3054H27.2396V65.0916C27.2396 65.187 27.1938 65.2328 27.0983 65.2328H26.0749C25.9794 65.2328 25.9336 65.187 25.9336 65.0916V60.1832C25.9336 60.0878 25.9794 60.042 26.0749 60.042H30.5467C30.6651 60.042 30.7797 60.0649 30.8828 60.1107V60.1145Z" fill="#242425"/>
<path d="M36.0689 60.0458C36.1873 60.0458 36.3019 60.0687 36.4088 60.1145C36.5157 60.1603 36.6074 60.2252 36.6838 60.3015C36.7601 60.3778 36.8213 60.4694 36.8709 60.5763C36.9205 60.6832 36.9396 60.7939 36.9396 60.9122V65.0916C36.9396 65.1297 36.9244 65.1641 36.8976 65.1908C36.8709 65.2175 36.8365 65.2328 36.7983 65.2328H35.7673C35.7291 65.2328 35.6947 65.2175 35.668 65.1908C35.6412 65.1641 35.626 65.1297 35.626 65.0916V63.7633C35.626 63.7252 35.6145 63.6908 35.5878 63.6641C35.561 63.6374 35.5305 63.6221 35.4923 63.6221H34.022C33.9839 63.6221 33.9495 63.6374 33.9228 63.6641C33.896 63.6908 33.8807 63.7252 33.8807 63.7633V65.0916C33.8807 65.187 33.8349 65.2328 33.7394 65.2328H32.716C32.6244 65.2328 32.5747 65.187 32.5747 65.0916V60.9122C32.5747 60.7939 32.5976 60.6794 32.6396 60.5763C32.6855 60.4694 32.7466 60.3778 32.8267 60.3015C32.9069 60.2252 32.9986 60.1641 33.1055 60.1145C33.2125 60.0687 33.3232 60.0458 33.4416 60.0458H36.0689ZM35.626 62.5152V61.2099H33.8846V62.5152H35.626Z" fill="#242425"/>
<path d="M41.6061 60.0878C41.6328 60.1145 41.6481 60.1489 41.6481 60.187V64.3664C41.6481 64.4847 41.6252 64.5992 41.5794 64.7023C41.5335 64.8092 41.4686 64.9008 41.3922 64.9809C41.3159 65.0611 41.2242 65.1221 41.1173 65.1679C41.0104 65.2138 40.8996 65.2328 40.7812 65.2328H38.5472C38.4288 65.2328 38.3143 65.2099 38.2111 65.1679C38.1042 65.1221 38.0126 65.0611 37.9324 64.9809C37.8522 64.9008 37.7911 64.8092 37.7452 64.7023C37.6994 64.5954 37.6765 64.4847 37.6765 64.3664V62.7786C37.6765 62.6832 37.7223 62.6374 37.8178 62.6374H38.8413C38.9329 62.6374 38.9826 62.6832 38.9826 62.7786V63.8397C38.9826 63.8779 38.994 63.9122 39.0246 63.9351C39.0513 63.958 39.0857 63.9733 39.1238 63.9733H40.2008C40.2389 63.9733 40.2733 63.9618 40.3001 63.9351C40.3268 63.9084 40.3421 63.8779 40.3421 63.8397V60.1832C40.3421 60.145 40.3535 60.1107 40.3802 60.084C40.407 60.0573 40.4375 60.042 40.4757 60.042H41.5068C41.545 60.042 41.5794 60.0573 41.6061 60.084V60.0878Z" fill="#242425"/>
<path d="M46.2996 60.0458C46.4179 60.0458 46.5325 60.0687 46.6356 60.1145C46.7426 60.1603 46.8342 60.2252 46.9106 60.3015C46.987 60.3778 47.0481 60.4694 47.0977 60.5763C47.1473 60.6832 47.1664 60.7939 47.1664 60.9122V64.3664C47.1664 64.4847 47.1435 64.5992 47.0977 64.7023C47.0519 64.8053 46.9908 64.9007 46.9106 64.9809C46.8342 65.061 46.7426 65.1221 46.6356 65.1679C46.5287 65.2137 46.4179 65.2328 46.2996 65.2328H43.6722C43.5538 65.2328 43.4393 65.2099 43.3362 65.1679C43.2292 65.1221 43.1376 65.061 43.0574 64.9809C42.9772 64.9007 42.9161 64.8091 42.8703 64.7023C42.8244 64.5954 42.8015 64.4847 42.8015 64.3664V60.9122C42.8015 60.7939 42.8244 60.6794 42.8703 60.5763C42.9161 60.4733 42.9772 60.3778 43.0574 60.3015C43.1376 60.2252 43.2292 60.1641 43.3362 60.1145C43.4431 60.0687 43.5538 60.0458 43.6722 60.0458H46.2996ZM45.8566 61.3053H44.1152V63.9733H45.8566V61.3053Z" fill="#242425"/>
<path d="M52.8564 65.1145C52.8755 65.1489 52.8793 65.1794 52.864 65.1985C52.8487 65.2214 52.822 65.2328 52.7838 65.2328H51.6038C51.5656 65.2328 51.5236 65.2214 51.4854 65.1985C51.4472 65.1756 51.4167 65.1489 51.3976 65.1145L50.6109 63.7061C50.5994 63.687 50.5842 63.6756 50.5574 63.6756H49.6753C49.6524 63.6756 49.6371 63.687 49.6371 63.7137V65.0916C49.6371 65.187 49.5913 65.2328 49.4958 65.2328H48.4724C48.3769 65.2328 48.3311 65.187 48.3311 65.0916V60.1832C48.3311 60.0878 48.3769 60.042 48.4724 60.042H51.8253C51.9437 60.042 52.0582 60.0649 52.1613 60.1107C52.2683 60.1565 52.3599 60.2214 52.4363 60.2977C52.5127 60.3741 52.5738 60.4657 52.6234 60.5725C52.6693 60.6794 52.6922 60.7901 52.6922 60.9084V62.8588C52.6922 63.0458 52.6349 63.2176 52.5241 63.3664C52.4134 63.5191 52.2721 63.6183 52.0964 63.6756L52.0735 63.6832C52.0391 63.6947 52.0315 63.7061 52.0506 63.729L52.0582 63.7443L52.8526 65.1145H52.8564ZM51.3785 61.2519H49.5913V62.5115H51.3785V61.2519Z" fill="#242425"/>
<path d="M59.8487 63.9733C59.8869 63.9733 59.9213 63.9886 59.9442 64.0153C59.9671 64.042 59.9824 64.0763 59.9824 64.1145V65.0916C59.9824 65.1298 59.9709 65.1641 59.9442 65.1908C59.9175 65.2176 59.8869 65.2328 59.8487 65.2328H56.6447C56.5492 65.2328 56.5034 65.187 56.5034 65.0916V60.1832C56.5034 60.0878 56.5492 60.042 56.6447 60.042H57.6682C57.7636 60.042 57.8095 60.0878 57.8095 60.1832V63.8397C57.8095 63.8779 57.8209 63.9122 57.8515 63.9351C57.882 63.958 57.9126 63.9733 57.9508 63.9733H59.8487Z" fill="#242425"/>
<path d="M64.6374 60.0878C64.6642 60.1145 64.6794 60.1488 64.6794 60.187V61.1221C64.6794 61.1603 64.6642 61.1946 64.6374 61.2175C64.6107 61.2404 64.5763 61.2557 64.5381 61.2557H62.0521C62.0292 61.2557 62.0139 61.2671 62.0139 61.2939V62.103C62.0139 62.1221 62.0254 62.1336 62.0521 62.1336H64.1754C64.2135 62.1336 64.2479 62.1488 64.2708 62.1755C64.2937 62.2023 64.309 62.2366 64.309 62.2748V63.0152C64.309 63.0534 64.2976 63.0878 64.2708 63.1145C64.2441 63.1412 64.2135 63.1565 64.1754 63.1565H62.0521C62.0292 63.1565 62.0139 63.1679 62.0139 63.1946V63.9962C62.0139 64.0191 62.0254 64.0343 62.0521 64.0343H64.5381C64.5763 64.0343 64.6107 64.0496 64.6374 64.0763C64.6642 64.103 64.6794 64.1374 64.6794 64.1755V65.103C64.6794 65.1412 64.6642 65.1755 64.6374 65.2023C64.6107 65.229 64.5763 65.2442 64.5381 65.2442H60.853C60.7575 65.2442 60.7117 65.1984 60.7117 65.103V60.1946C60.7117 60.1565 60.7269 60.1221 60.7537 60.0954C60.7804 60.0687 60.8148 60.0534 60.853 60.0534H64.5381C64.5763 60.0534 64.6107 60.0687 64.6374 60.0954V60.0878Z" fill="#242425"/>
<path d="M69.3424 60.0458C69.4608 60.0458 69.5753 60.0687 69.6823 60.1145C69.7892 60.1603 69.8808 60.2252 69.9572 60.3015C70.0336 60.3778 70.0947 60.4694 70.1443 60.5763C70.194 60.6832 70.2131 60.7939 70.2131 60.9122V65.0916C70.2131 65.1297 70.1978 65.1641 70.1711 65.1908C70.1443 65.2175 70.11 65.2328 70.0718 65.2328H69.0407C69.0025 65.2328 68.9681 65.2175 68.9414 65.1908C68.9147 65.1641 68.8994 65.1297 68.8994 65.0916V63.7633C68.8994 63.7252 68.8879 63.6908 68.8612 63.6641C68.8345 63.6374 68.8039 63.6221 68.7657 63.6221H67.2955C67.2573 63.6221 67.2229 63.6374 67.1962 63.6641C67.1695 63.6908 67.1542 63.7252 67.1542 63.7633V65.0916C67.1542 65.187 67.1084 65.2328 67.0129 65.2328H65.9894C65.8978 65.2328 65.8481 65.187 65.8481 65.0916V60.9122C65.8481 60.7939 65.8711 60.6794 65.9131 60.5763C65.9589 60.4694 66.02 60.3778 66.1002 60.3015C66.1804 60.2252 66.272 60.1641 66.379 60.1145C66.4859 60.0687 66.5966 60.0458 66.715 60.0458H69.3424ZM68.8994 62.5152V61.2099H67.158V62.5152H68.8994Z" fill="#242425"/>
<path d="M75.6894 62.4427C75.7161 62.4694 75.7314 62.5038 75.7314 62.542V64.3664C75.7314 64.4847 75.7085 64.5992 75.6626 64.7023C75.6168 64.8053 75.5557 64.9007 75.4755 64.9809C75.3991 65.061 75.3075 65.1221 75.2006 65.1679C75.0936 65.2137 74.9829 65.2328 74.8645 65.2328H72.2371C72.1188 65.2328 72.0042 65.2099 71.9011 65.1679C71.7942 65.1221 71.7025 65.061 71.6223 64.9809C71.5421 64.9007 71.481 64.8091 71.4352 64.7023C71.3894 64.5954 71.3665 64.4847 71.3665 64.3664V60.9122C71.3665 60.7939 71.3894 60.6794 71.4352 60.5763C71.481 60.4733 71.5421 60.3778 71.6223 60.3015C71.7025 60.2252 71.7942 60.1641 71.9011 60.1145C72.008 60.0687 72.1188 60.0458 72.2371 60.0458H75.2998C75.338 60.0458 75.3724 60.061 75.3991 60.0878C75.4259 60.1145 75.4412 60.1488 75.4412 60.187V61.1641C75.4412 61.2023 75.4259 61.2366 75.3991 61.2633C75.3724 61.29 75.338 61.3053 75.2998 61.3053H72.8138C72.7756 61.3053 72.7412 61.3168 72.7145 61.3435C72.6878 61.3702 72.6725 61.4007 72.6725 61.4389V63.8397C72.6725 63.8778 72.6878 63.9122 72.7145 63.9351C72.7412 63.958 72.7756 63.9733 72.8138 63.9733H74.284C74.3222 63.9733 74.3566 63.9618 74.3795 63.9351C74.4024 63.9084 74.4177 63.8778 74.4177 63.8397V62.542C74.4177 62.5038 74.4292 62.4694 74.4597 62.4427C74.4903 62.416 74.5208 62.4007 74.559 62.4007H75.5901C75.6283 62.4007 75.6626 62.416 75.6894 62.4427Z" fill="#242425"/>
<path d="M81.1615 60.0878C81.1883 60.1145 81.2035 60.1488 81.2035 60.187V64.3664C81.2035 64.4847 81.1806 64.5992 81.1348 64.7023C81.089 64.8053 81.0279 64.9007 80.9477 64.9809C80.8713 65.061 80.7797 65.1221 80.6727 65.1679C80.5658 65.2137 80.4551 65.2328 80.3329 65.2328H77.7055C77.5871 65.2328 77.4725 65.2099 77.3694 65.1679C77.2625 65.1221 77.1709 65.061 77.0907 64.9809C77.0105 64.9007 76.9494 64.8091 76.9035 64.7023C76.8577 64.5954 76.8386 64.4847 76.8386 64.3664V60.187C76.8386 60.0916 76.8844 60.0458 76.9799 60.0458H78.0034C78.095 60.0458 78.1447 60.0916 78.1447 60.187V63.8435C78.1447 63.8817 78.1599 63.916 78.1867 63.9389C78.2134 63.9618 78.2478 63.9771 78.286 63.9771H79.7562C79.7944 63.9771 79.8288 63.9656 79.8517 63.9389C79.8746 63.9122 79.8899 63.8817 79.8899 63.8435V60.187C79.8899 60.1488 79.9051 60.1145 79.9319 60.0878C79.9586 60.061 79.993 60.0458 80.0312 60.0458H81.0623C81.1004 60.0458 81.1348 60.061 81.1615 60.0878Z" fill="#242425"/>
<path d="M86.3017 60.0878C86.3285 60.1145 86.3437 60.1488 86.3437 60.187V61.1221C86.3437 61.1603 86.3285 61.1946 86.3017 61.2175C86.275 61.2404 86.2406 61.2557 86.2024 61.2557H83.7164C83.6935 61.2557 83.6782 61.2671 83.6782 61.2939V62.103C83.6782 62.1221 83.6897 62.1336 83.7164 62.1336H85.8397C85.8778 62.1336 85.9122 62.1488 85.9351 62.1755C85.958 62.2023 85.9733 62.2366 85.9733 62.2748V63.0152C85.9733 63.0534 85.9619 63.0878 85.9351 63.1145C85.9084 63.1412 85.8778 63.1565 85.8397 63.1565H83.7164C83.6935 63.1565 83.6782 63.1679 83.6782 63.1946V63.9962C83.6782 64.0191 83.6897 64.0343 83.7164 64.0343H86.2024C86.2406 64.0343 86.275 64.0496 86.3017 64.0763C86.3285 64.103 86.3437 64.1374 86.3437 64.1755V65.103C86.3437 65.1412 86.3285 65.1755 86.3017 65.2023C86.275 65.229 86.2406 65.2442 86.2024 65.2442H82.5173C82.4218 65.2442 82.376 65.1984 82.376 65.103V60.1946C82.376 60.1565 82.3913 60.1221 82.418 60.0954C82.4447 60.0687 82.4791 60.0534 82.5173 60.0534H86.2024C86.2406 60.0534 86.275 60.0687 86.3017 60.0954V60.0878Z" fill="#242425"/>
<path d="M94.2642 60.0458C94.3023 60.0458 94.3367 60.061 94.3635 60.0878C94.3902 60.1145 94.4055 60.1488 94.4055 60.187V65.0954C94.4055 65.1336 94.394 65.1679 94.3635 65.1946C94.3329 65.2213 94.3023 65.2366 94.2642 65.2366H93.2331C93.1949 65.2366 93.1605 65.2213 93.1338 65.1946C93.1071 65.1679 93.0918 65.1336 93.0918 65.0954V63.3817C93.0918 63.3435 93.0803 63.3091 93.0536 63.2862C93.0269 63.2633 92.9963 63.2481 92.9581 63.2481H91.4879C91.4497 63.2481 91.4153 63.2595 91.3886 63.2862C91.3618 63.3129 91.3466 63.3435 91.3466 63.3817V65.0954C91.3466 65.1908 91.3007 65.2366 91.2053 65.2366H90.1818C90.0864 65.2366 90.0405 65.1908 90.0405 65.0954V60.187C90.0405 60.0916 90.0864 60.0458 90.1818 60.0458H91.2053C91.3007 60.0458 91.3466 60.0916 91.3466 60.187V61.8473C91.3466 61.9427 91.3924 61.9885 91.4879 61.9885H92.9581C92.9963 61.9885 93.0307 61.9733 93.0536 61.9465C93.0765 61.9198 93.0918 61.8855 93.0918 61.8473V60.187C93.0918 60.1488 93.1071 60.1145 93.1338 60.0878C93.1605 60.061 93.1949 60.0458 93.2331 60.0458H94.2642Z" fill="#242425"/>
<path d="M99.0719 60.0458C99.1903 60.0458 99.3048 60.0687 99.4117 60.1145C99.5187 60.1603 99.6103 60.2252 99.6867 60.3015C99.7631 60.3778 99.8242 60.4694 99.8738 60.5763C99.9235 60.6832 99.9426 60.7939 99.9426 60.9122V65.0916C99.9426 65.1297 99.9273 65.1641 99.9006 65.1908C99.8738 65.2175 99.8395 65.2328 99.8013 65.2328H98.7702C98.732 65.2328 98.6976 65.2175 98.6709 65.1908C98.6442 65.1641 98.6289 65.1297 98.6289 65.0916V63.7633C98.6289 63.7252 98.6174 63.6908 98.5907 63.6641C98.564 63.6374 98.5334 63.6221 98.4952 63.6221H97.025C96.9868 63.6221 96.9524 63.6374 96.9257 63.6641C96.899 63.6908 96.8837 63.7252 96.8837 63.7633V65.0916C96.8837 65.187 96.8379 65.2328 96.7424 65.2328H95.7189C95.6273 65.2328 95.5776 65.187 95.5776 65.0916V60.9122C95.5776 60.7939 95.6005 60.6794 95.6426 60.5763C95.6884 60.4694 95.7495 60.3778 95.8297 60.3015C95.9099 60.2252 96.0015 60.1641 96.1085 60.1145C96.2154 60.0687 96.3261 60.0458 96.4445 60.0458H99.0719ZM98.6289 62.5152V61.2099H96.8875V62.5152H98.6289Z" fill="#242425"/>
<path d="M102.436 61.3435C102.41 61.3664 102.394 61.4007 102.394 61.4389V63.8397C102.394 63.8778 102.406 63.9122 102.436 63.9351C102.467 63.958 102.498 63.9733 102.536 63.9733H104.919C104.957 63.9733 104.991 63.9885 105.018 64.0152C105.045 64.042 105.06 64.0763 105.06 64.1145V65.0916C105.06 65.1297 105.049 65.1641 105.018 65.1908C104.987 65.2175 104.957 65.2328 104.919 65.2328H101.959C101.841 65.2328 101.726 65.2099 101.623 65.1679C101.516 65.1221 101.424 65.061 101.344 64.9809C101.264 64.9007 101.203 64.8091 101.157 64.7023C101.111 64.5954 101.088 64.4847 101.088 64.3664V60.9122C101.088 60.7939 101.111 60.6794 101.157 60.5763C101.203 60.4694 101.264 60.3778 101.344 60.3015C101.424 60.2252 101.516 60.1641 101.623 60.1145C101.73 60.0687 101.841 60.0458 101.959 60.0458H104.919C104.957 60.0458 104.991 60.061 105.018 60.0878C105.045 60.1145 105.06 60.1488 105.06 60.187V61.1641C105.06 61.2023 105.049 61.2366 105.018 61.2633C104.987 61.29 104.957 61.3053 104.919 61.3053H102.536C102.498 61.3053 102.463 61.3168 102.436 61.3435Z" fill="#242425"/>
<path d="M109.188 62.2328C109.188 62.2328 109.169 62.2633 109.18 62.2862L110.918 65.1183C110.937 65.1526 110.941 65.1832 110.926 65.2023C110.91 65.2252 110.884 65.2366 110.845 65.2366H109.616C109.578 65.2366 109.535 65.2252 109.497 65.2023C109.459 65.1794 109.429 65.1526 109.409 65.1183L108.291 63.0954C108.275 63.0725 108.264 63.0687 108.252 63.0878L107.638 63.7633C107.615 63.79 107.592 63.8244 107.576 63.8702C107.557 63.916 107.55 63.9618 107.55 64V65.0954C107.55 65.1908 107.504 65.2366 107.408 65.2366H106.385C106.289 65.2366 106.244 65.1908 106.244 65.0954V60.187C106.244 60.0916 106.289 60.0458 106.385 60.0458H107.408C107.504 60.0458 107.55 60.0916 107.55 60.187V62.3893L109.463 60.1488C109.486 60.1183 109.52 60.0954 109.566 60.0763C109.612 60.0572 109.654 60.0458 109.692 60.0458H110.922C110.96 60.0458 110.983 60.0572 110.99 60.0763C110.998 60.0954 110.99 60.1221 110.964 60.1488L109.192 62.2328H109.188Z" fill="#242425"/>
<path d="M113.186 65.0954C113.186 65.1908 113.141 65.2366 113.045 65.2366H112.022C111.926 65.2366 111.88 65.1908 111.88 65.0954V60.187C111.88 60.0916 111.926 60.0458 112.022 60.0458H113.045C113.141 60.0458 113.186 60.0916 113.186 60.187V65.0954Z" fill="#242425"/>
<path d="M118.182 60.1145C118.288 60.1603 118.38 60.2252 118.456 60.3015C118.533 60.3779 118.594 60.4695 118.644 60.5763C118.689 60.6832 118.712 60.7939 118.712 60.9122V65.0916C118.712 65.1298 118.701 65.1641 118.67 65.1908C118.64 65.2176 118.609 65.2328 118.571 65.2328H117.54C117.502 65.2328 117.467 65.2176 117.444 65.1908C117.422 65.1641 117.406 65.1298 117.406 65.0916V61.4351C117.406 61.397 117.391 61.3626 117.364 61.3397C117.338 61.3168 117.303 61.3015 117.265 61.3015H115.795C115.757 61.3015 115.722 61.313 115.695 61.3397C115.669 61.3664 115.653 61.397 115.653 61.4351V65.0916C115.653 65.187 115.608 65.2328 115.512 65.2328H114.489C114.393 65.2328 114.347 65.187 114.347 65.0916V60.1832C114.347 60.0878 114.393 60.042 114.489 60.042H117.842C117.96 60.042 118.075 60.0649 118.178 60.1107L118.182 60.1145Z" fill="#242425"/>
<path d="M124.188 62.4427C124.215 62.4694 124.23 62.5038 124.23 62.542V64.3664C124.23 64.4847 124.207 64.5992 124.162 64.7023C124.116 64.8053 124.055 64.9007 123.975 64.9809C123.898 65.061 123.807 65.1221 123.7 65.1679C123.593 65.2137 123.482 65.2328 123.364 65.2328H120.736C120.618 65.2328 120.503 65.2099 120.4 65.1679C120.293 65.1221 120.202 65.061 120.121 64.9809C120.041 64.9007 119.98 64.8091 119.934 64.7023C119.888 64.5954 119.865 64.4847 119.865 64.3664V60.9122C119.865 60.7939 119.888 60.6794 119.934 60.5763C119.98 60.4733 120.041 60.3778 120.121 60.3015C120.202 60.2252 120.293 60.1641 120.4 60.1145C120.507 60.0687 120.618 60.0458 120.736 60.0458H123.799C123.837 60.0458 123.871 60.061 123.898 60.0878C123.925 60.1145 123.94 60.1488 123.94 60.187V61.1641C123.94 61.2023 123.925 61.2366 123.898 61.2633C123.871 61.29 123.837 61.3053 123.799 61.3053H121.313C121.275 61.3053 121.24 61.3168 121.214 61.3435C121.187 61.3702 121.172 61.4007 121.172 61.4389V63.8397C121.172 63.8778 121.187 63.9122 121.214 63.9351C121.24 63.958 121.275 63.9733 121.313 63.9733H122.783C122.821 63.9733 122.856 63.9618 122.879 63.9351C122.901 63.9084 122.917 63.8778 122.917 63.8397V62.542C122.917 62.5038 122.928 62.4694 122.959 62.4427C122.989 62.416 123.02 62.4007 123.058 62.4007H124.089C124.127 62.4007 124.162 62.416 124.188 62.4427Z" fill="#242425"/>
<path d="M57.2214 24.3206C57.8935 24.6183 58.4701 25.0076 58.9551 25.4885C59.4401 25.9733 59.8296 26.5496 60.1275 27.2175C60.4254 27.8893 60.5743 28.5954 60.5743 29.3435V56.5687C60.5743 56.8168 60.4865 57.0305 60.3146 57.1984C60.1428 57.3664 59.9327 57.4542 59.6807 57.4542H53.1658C52.9137 57.4542 52.7113 57.3702 52.5548 57.1984C52.3982 57.0267 52.3218 56.8168 52.3218 56.5687V31.8206H47.0709V56.5687C47.0709 56.8168 46.9907 57.0305 46.838 57.1984C46.6814 57.3702 46.479 57.4542 46.227 57.4542H40.3192C40.0672 57.4542 39.8571 57.3702 39.6853 57.1984C39.5134 57.0267 39.4256 56.8168 39.4256 56.5687V31.8206H34.1747V56.5687C34.1747 57.1603 33.8768 57.458 33.2849 57.458H26.8158C26.2201 57.458 25.926 57.1603 25.926 56.5687V24.7633C25.926 24.1717 26.2239 23.874 26.8158 23.874H55.0828C55.8313 23.874 56.5416 24.0229 57.2137 24.3168L57.2214 24.3206Z" fill="#E73427"/>
<path d="M57.2214 24.3206C57.8935 24.6183 58.4702 25.0076 58.9551 25.4885C59.4401 25.9733 59.8297 26.5496 60.1275 27.2175C60.4254 27.8893 60.5743 28.5954 60.5743 29.3435V31.771L52.3257 31.8206H34.1862L25.9375 31.771V24.7633C25.9375 24.1717 26.2354 23.874 26.8273 23.874H55.0943C55.8428 23.874 56.5531 24.0229 57.2252 24.3168L57.2214 24.3206Z" fill="#E73427"/>
<path d="M88.9827 49.3092C89.2462 49.3092 89.4639 49.397 89.6281 49.5725C89.7923 49.7481 89.8763 49.9657 89.8763 50.2214V56.5534C89.8763 56.8092 89.7923 57.0267 89.6281 57.2023C89.4639 57.3779 89.2462 57.4657 88.9827 57.4657H66.6654C66.0353 57.4657 65.7222 57.1603 65.7222 56.5534V24.7901C65.7222 24.1832 66.0353 23.8779 66.6654 23.8779H73.5164C74.1465 23.8779 74.4597 24.1832 74.4597 24.7901V48.4466C74.4597 48.7023 74.5513 48.9122 74.7346 49.0687C74.9179 49.229 75.1394 49.3092 75.4067 49.3092H88.9827Z" fill="#1D539F"/>
<path d="M74.3908 57.4657H66.6653C66.039 57.4657 65.7258 57.1603 65.7258 56.5534V24.7901C65.7258 24.1832 66.039 23.8779 66.6653 23.8779H73.501C74.1273 23.8779 74.4404 24.1832 74.4404 24.7901V48.4466C74.4404 48.7023 74.3908 57.4657 74.3908 57.4657Z" fill="#1D539F"/>
<path d="M123.283 23.8778C123.551 23.8778 123.776 23.9656 123.959 24.1412C124.143 24.3168 124.234 24.5343 124.234 24.7901V56.645C124.234 56.9007 124.143 57.1183 123.959 57.2939C123.776 57.4694 123.551 57.5572 123.283 57.5572H116.341C116.073 57.5572 115.848 57.4694 115.665 57.2939C115.481 57.1183 115.39 56.9007 115.39 56.645V45.5305C115.39 45.2748 115.306 45.0649 115.142 44.9046C114.974 44.7443 114.76 44.6641 114.492 44.6641H104.754C104.487 44.6641 104.262 44.7443 104.078 44.9046C103.895 45.0649 103.803 45.2748 103.803 45.5305V56.645C103.803 57.2557 103.487 57.561 102.856 57.561H95.9634C95.3295 57.561 95.0164 57.2557 95.0164 56.645V24.7901C95.0164 24.1794 95.3333 23.874 95.9634 23.874H102.856C103.487 23.874 103.803 24.1794 103.803 24.7901V35.5687C103.803 36.1794 104.12 36.4847 104.751 36.4847H114.489C114.756 36.4847 114.97 36.3969 115.138 36.2214C115.306 36.0458 115.386 35.8282 115.386 35.5725V24.7939C115.386 24.5381 115.478 24.3206 115.661 24.145C115.844 23.9694 116.07 23.8817 116.337 23.8817H123.28L123.283 23.8778Z" fill="#F8B92A"/>
<path d="M103.807 45.5305V56.645C103.807 57.2557 103.49 57.561 102.86 57.561H95.9673C95.3334 57.561 95.0203 57.2557 95.0203 56.645V24.7901C95.0203 24.1794 95.3372 23.874 95.9673 23.874H102.86C103.49 23.874 103.807 24.1794 103.807 24.7901V45.5305Z" fill="#F8B92A"/>
<path d="M123.283 23.8779C123.551 23.8779 123.776 23.9657 123.959 24.1412C124.143 24.3168 124.234 24.5344 124.234 24.7901V56.6451C124.234 56.9008 124.143 57.1183 123.959 57.2939C123.776 57.4695 123.551 57.5573 123.283 57.5573H116.341C116.073 57.5573 115.848 57.4695 115.665 57.2939C115.482 57.1183 115.39 56.9008 115.39 56.6451V24.7901C115.39 24.5344 115.482 24.3168 115.665 24.1412C115.848 23.9657 116.073 23.8779 116.341 23.8779H123.283Z" fill="#F8B92A"/>
<path d="M29.7678 186.366V190.24C29.8556 190.676 30.1153 190.893 30.5506 190.893H45.1768C45.4097 190.893 45.5968 190.973 45.7419 191.134C45.8871 191.294 45.9596 191.489 45.9596 191.721V196.985C45.9596 197.218 45.8871 197.412 45.7419 197.573C45.5968 197.733 45.4097 197.813 45.1768 197.813H23.7569C23.207 197.813 22.9282 197.538 22.9282 196.985V184.542C22.9282 183.847 23.0581 183.195 23.3216 182.584C23.5851 181.973 23.944 181.439 24.4099 180.973C24.8758 180.508 25.4181 180.145 26.0444 179.885C26.6669 179.626 27.3275 179.492 28.0264 179.492H38.3449C38.5778 179.492 38.7726 179.412 38.933 179.252C39.0933 179.092 39.1735 178.897 39.1735 178.664V175.141C39.1735 174.908 39.0933 174.714 38.933 174.553C38.7726 174.393 38.5778 174.313 38.3449 174.313H24.6734C24.4405 174.313 24.2534 174.24 24.1082 174.095C23.9631 173.95 23.8906 173.763 23.8906 173.531V168.179C23.8906 167.947 23.9631 167.752 24.1082 167.592C24.2534 167.431 24.4405 167.351 24.6734 167.351H40.9111C41.6061 167.351 42.2592 167.489 42.8702 167.763C43.4812 168.038 44.0158 168.401 44.4817 168.851C44.9438 169.302 45.3104 169.836 45.5701 170.462C45.8298 171.088 45.9634 171.744 45.9634 172.443V173.66C45.9902 173.691 46.0054 173.733 46.0054 173.79V184.885C46.0054 185.118 45.9252 185.305 45.7649 185.45C45.6045 185.595 45.4097 185.668 45.1768 185.668H30.5506C30.142 185.668 29.8823 185.901 29.7678 186.363V186.366Z" fill="#122F4C"/>
<path d="M68.7314 167.355C69.4264 167.355 70.0871 167.492 70.7134 167.767C71.3359 168.042 71.8743 168.405 72.3249 168.855C72.7756 169.305 73.1384 169.84 73.4133 170.466C73.6883 171.092 73.8257 171.748 73.8257 172.447V192.721C73.8257 193.416 73.6883 194.076 73.4133 194.702C73.1384 195.328 72.7756 195.87 72.3249 196.332C71.8743 196.798 71.3397 197.16 70.7134 197.42C70.0871 197.679 69.4303 197.813 68.7314 197.813H55.629C54.934 197.813 54.2733 197.683 53.647 197.42C53.0207 197.16 52.4785 196.798 52.0164 196.332C51.5505 195.87 51.1877 195.324 50.928 194.702C50.6683 194.08 50.5347 193.42 50.5347 192.721V172.447C50.5347 171.752 50.6645 171.092 50.928 170.466C51.1877 169.844 51.5505 169.305 52.0164 168.855C52.4785 168.405 53.0245 168.042 53.647 167.767C54.2695 167.492 54.9301 167.355 55.629 167.355H68.7314ZM66.4248 174.752H57.9356V190.416H66.4248V174.752Z" fill="#122F4C"/>
<path d="M85.0988 186.366V190.24C85.1866 190.676 85.4463 190.893 85.8817 190.893H100.508C100.741 190.893 100.928 190.973 101.073 191.134C101.218 191.294 101.291 191.489 101.291 191.721V196.985C101.291 197.218 101.218 197.412 101.073 197.573C100.928 197.733 100.741 197.813 100.508 197.813H79.088C78.5381 197.813 78.2593 197.538 78.2593 196.985V184.542C78.2593 183.847 78.3891 183.195 78.6526 182.584C78.9123 181.973 79.2751 181.439 79.741 180.973C80.2069 180.508 80.7492 180.145 81.3716 179.885C81.9941 179.626 82.6548 179.492 83.3536 179.492H93.6721C93.905 179.492 94.0998 179.412 94.2602 179.252C94.4206 179.092 94.5008 178.897 94.5008 178.664V175.141C94.5008 174.908 94.4206 174.714 94.2602 174.553C94.0998 174.393 93.905 174.313 93.6721 174.313H80.0007C79.7677 174.313 79.5806 174.24 79.4355 174.095C79.2904 173.95 79.2178 173.763 79.2178 173.531V168.179C79.2178 167.947 79.2904 167.752 79.4355 167.592C79.5806 167.431 79.7677 167.351 80.0007 167.351H96.2384C96.9334 167.351 97.5864 167.489 98.1974 167.763C98.8084 168.038 99.3431 168.401 99.809 168.851C100.275 169.302 100.638 169.836 100.897 170.462C101.157 171.088 101.291 171.744 101.291 172.443V173.66C101.317 173.691 101.333 173.733 101.333 173.79V184.885C101.333 185.118 101.252 185.305 101.092 185.45C100.932 185.595 100.737 185.668 100.504 185.668H85.8779C85.4692 185.668 85.2096 185.901 85.095 186.363L85.0988 186.366Z" fill="#122F4C"/>
<path d="M127.175 167.592C127.335 167.752 127.415 167.947 127.415 168.179V196.985C127.415 197.218 127.335 197.412 127.175 197.573C127.015 197.733 126.82 197.813 126.587 197.813H120.534C120.301 197.813 120.114 197.733 119.969 197.573C119.824 197.412 119.751 197.218 119.751 196.985V189.847C119.751 189.614 119.671 189.427 119.511 189.282C119.35 189.137 119.155 189.065 118.922 189.065H109.215C108.52 189.065 107.859 188.927 107.233 188.653C106.61 188.378 106.064 188.015 105.602 187.565C105.136 187.115 104.774 186.58 104.514 185.954C104.254 185.332 104.121 184.672 104.121 183.973V168.179C104.121 167.63 104.396 167.351 104.949 167.351H110.956C111.506 167.351 111.785 167.626 111.785 168.179V180.58C111.785 180.813 111.865 181.008 112.026 181.168C112.186 181.328 112.381 181.408 112.614 181.408H118.926C119.159 181.408 119.354 181.328 119.514 181.168C119.675 181.008 119.755 180.813 119.755 180.58V168.179C119.755 167.947 119.827 167.752 119.973 167.592C120.118 167.431 120.305 167.351 120.538 167.351H126.591C126.824 167.351 127.018 167.431 127.179 167.592H127.175Z" fill="#122F4C"/>
</g>
<defs>
<clipPath id="clip0_84_86">
<rect width="150" height="262.595" fill="white"/>
</clipPath>
</defs>
</svg>
