<svg width="569" height="344" viewBox="0 0 569 344" fill="none" xmlns="http://www.w3.org/2000/svg">
<g filter="url(#filter0_d_80_38)">
<rect x="1" y="1" width="559" height="334" rx="12" fill="#0A0908" fill-opacity="0.9" shape-rendering="crispEdges"/>
</g>
<ellipse cx="35.4916" cy="26.1869" rx="7.13617" ry="6.57049" fill="#E45D5D"/>
<ellipse cx="60.4682" cy="26.1869" rx="7.13617" ry="6.57049" fill="#DCBC17"/>
<ellipse cx="85.4448" cy="26.1869" rx="7.13617" ry="6.57049" fill="#4CB41B"/>
<path d="M48.5016 74.1447C48.8616 74.1447 49.1616 74.1197 49.4016 74.0697C49.6516 74.0097 49.8466 73.9297 49.9866 73.8297C50.1266 73.7197 50.2266 73.5947 50.2866 73.4547C50.3466 73.3047 50.3766 73.1447 50.3766 72.9747C50.3766 72.7247 50.3166 72.5147 50.1966 72.3447C50.0766 72.1647 49.9116 72.0097 49.7016 71.8797C49.5016 71.7397 49.2716 71.6197 49.0116 71.5197C48.7516 71.4097 48.4816 71.3047 48.2016 71.2047C47.9316 71.1047 47.6616 70.9947 47.3916 70.8747C47.1316 70.7547 46.8966 70.6097 46.6866 70.4397C46.4866 70.2597 46.3216 70.0497 46.1916 69.8097C46.0616 69.5597 45.9966 69.2547 45.9966 68.8947C45.9966 68.2547 46.1866 67.7347 46.5666 67.3347C46.9466 66.9347 47.4966 66.6797 48.2166 66.5697V65.0247H49.3266V66.5247C49.7266 66.5447 50.0916 66.5947 50.4216 66.6747C50.7616 66.7447 51.0316 66.8197 51.2316 66.8997L50.9766 67.9497C50.7666 67.8697 50.5016 67.7897 50.1816 67.7097C49.8616 67.6197 49.4566 67.5747 48.9666 67.5747C48.4266 67.5747 48.0116 67.6747 47.7216 67.8747C47.4416 68.0747 47.3016 68.3647 47.3016 68.7447C47.3016 68.9547 47.3416 69.1297 47.4216 69.2697C47.5116 69.4097 47.6366 69.5347 47.7966 69.6447C47.9566 69.7547 48.1416 69.8547 48.3516 69.9447C48.5716 70.0347 48.8166 70.1297 49.0866 70.2297C49.4266 70.3597 49.7566 70.4997 50.0766 70.6497C50.3966 70.7897 50.6766 70.9597 50.9166 71.1597C51.1566 71.3597 51.3466 71.5997 51.4866 71.8797C51.6366 72.1597 51.7116 72.4947 51.7116 72.8847C51.7116 73.4747 51.5166 73.9747 51.1266 74.3847C50.7366 74.7947 50.1366 75.0497 49.3266 75.1497V76.8747H48.2166V75.1947C47.5866 75.1747 47.0766 75.1047 46.6866 74.9847C46.2966 74.8647 46.0066 74.7497 45.8166 74.6397L46.1466 73.6047C46.4166 73.7347 46.7366 73.8597 47.1066 73.9797C47.4766 74.0897 47.9416 74.1447 48.5016 74.1447ZM48.5016 143.145C48.8616 143.145 49.1616 143.12 49.4016 143.07C49.6516 143.01 49.8466 142.93 49.9866 142.83C50.1266 142.72 50.2266 142.595 50.2866 142.455C50.3466 142.305 50.3766 142.145 50.3766 141.975C50.3766 141.725 50.3166 141.515 50.1966 141.345C50.0766 141.165 49.9116 141.01 49.7016 140.88C49.5016 140.74 49.2716 140.62 49.0116 140.52C48.7516 140.41 48.4816 140.305 48.2016 140.205C47.9316 140.105 47.6616 139.995 47.3916 139.875C47.1316 139.755 46.8966 139.61 46.6866 139.44C46.4866 139.26 46.3216 139.05 46.1916 138.81C46.0616 138.56 45.9966 138.255 45.9966 137.895C45.9966 137.255 46.1866 136.735 46.5666 136.335C46.9466 135.935 47.4966 135.68 48.2166 135.57V134.025H49.3266V135.525C49.7266 135.545 50.0916 135.595 50.4216 135.675C50.7616 135.745 51.0316 135.82 51.2316 135.9L50.9766 136.95C50.7666 136.87 50.5016 136.79 50.1816 136.71C49.8616 136.62 49.4566 136.575 48.9666 136.575C48.4266 136.575 48.0116 136.675 47.7216 136.875C47.4416 137.075 47.3016 137.365 47.3016 137.745C47.3016 137.955 47.3416 138.13 47.4216 138.27C47.5116 138.41 47.6366 138.535 47.7966 138.645C47.9566 138.755 48.1416 138.855 48.3516 138.945C48.5716 139.035 48.8166 139.13 49.0866 139.23C49.4266 139.36 49.7566 139.5 50.0766 139.65C50.3966 139.79 50.6766 139.96 50.9166 140.16C51.1566 140.36 51.3466 140.6 51.4866 140.88C51.6366 141.16 51.7116 141.495 51.7116 141.885C51.7116 142.475 51.5166 142.975 51.1266 143.385C50.7366 143.795 50.1366 144.05 49.3266 144.15V145.875H48.2166V144.195C47.5866 144.175 47.0766 144.105 46.6866 143.985C46.2966 143.865 46.0066 143.75 45.8166 143.64L46.1466 142.605C46.4166 142.735 46.7366 142.86 47.1066 142.98C47.4766 143.09 47.9416 143.145 48.5016 143.145Z" fill="#8D8787"/>
<path d="M61.0716 68.6547C61.5216 68.5447 61.9666 68.4597 62.4066 68.3997C62.8566 68.3397 63.2766 68.3097 63.6666 68.3097C64.5966 68.3097 65.2966 68.5497 65.7666 69.0297C66.2466 69.5097 66.4866 70.2797 66.4866 71.3397V75.4197H65.2566V71.5647C65.2566 71.1147 65.2166 70.7497 65.1366 70.4697C65.0566 70.1897 64.9416 69.9747 64.7916 69.8247C64.6516 69.6647 64.4766 69.5547 64.2666 69.4947C64.0666 69.4347 63.8466 69.4047 63.6066 69.4047C63.4066 69.4047 63.1916 69.4197 62.9616 69.4497C62.7416 69.4697 62.5266 69.4997 62.3166 69.5397V75.4197H61.0716V68.6547ZM74.4066 71.9397C74.4066 72.4897 74.3266 72.9897 74.1666 73.4397C74.0166 73.8797 73.8016 74.2597 73.5216 74.5797C73.2416 74.8997 72.9066 75.1497 72.5166 75.3297C72.1266 75.4997 71.7016 75.5847 71.2416 75.5847C70.7916 75.5847 70.3716 75.4997 69.9816 75.3297C69.6016 75.1497 69.2716 74.8997 68.9916 74.5797C68.7116 74.2597 68.4916 73.8797 68.3316 73.4397C68.1816 72.9897 68.1066 72.4897 68.1066 71.9397C68.1066 71.3897 68.1816 70.8897 68.3316 70.4397C68.4916 69.9897 68.7116 69.6097 68.9916 69.2997C69.2716 68.9797 69.6016 68.7347 69.9816 68.5647C70.3716 68.3847 70.7916 68.2947 71.2416 68.2947C71.7016 68.2947 72.1266 68.3847 72.5166 68.5647C72.9066 68.7347 73.2416 68.9797 73.5216 69.2997C73.8016 69.6097 74.0166 69.9897 74.1666 70.4397C74.3266 70.8897 74.4066 71.3897 74.4066 71.9397ZM73.1316 71.9397C73.1316 71.1497 72.9616 70.5297 72.6216 70.0797C72.2816 69.6197 71.8216 69.3897 71.2416 69.3897C70.6716 69.3897 70.2166 69.6197 69.8766 70.0797C69.5466 70.5297 69.3816 71.1497 69.3816 71.9397C69.3816 72.7197 69.5466 73.3397 69.8766 73.7997C70.2166 74.2497 70.6716 74.4747 71.2416 74.4747C71.8216 74.4747 72.2816 74.2497 72.6216 73.7997C72.9616 73.3397 73.1316 72.7197 73.1316 71.9397ZM80.1966 69.9297C80.0566 69.7997 79.8516 69.6797 79.5816 69.5697C79.3116 69.4497 79.0316 69.3897 78.7416 69.3897C78.4116 69.3897 78.1266 69.4547 77.8866 69.5847C77.6566 69.7147 77.4666 69.8947 77.3166 70.1247C77.1666 70.3447 77.0566 70.6147 76.9866 70.9347C76.9166 71.2447 76.8816 71.5797 76.8816 71.9397C76.8816 72.7497 77.0716 73.3747 77.4516 73.8147C77.8316 74.2547 78.3266 74.4747 78.9366 74.4747C79.2466 74.4747 79.5066 74.4597 79.7166 74.4297C79.9366 74.3997 80.0966 74.3697 80.1966 74.3397V69.9297ZM80.1966 65.2347L81.4416 65.0247V75.2247C81.1716 75.3047 80.8266 75.3847 80.4066 75.4647C79.9866 75.5447 79.4966 75.5847 78.9366 75.5847C78.4366 75.5847 77.9816 75.4997 77.5716 75.3297C77.1616 75.1597 76.8116 74.9197 76.5216 74.6097C76.2316 74.2897 76.0066 73.9047 75.8466 73.4547C75.6866 73.0047 75.6066 72.4997 75.6066 71.9397C75.6066 71.3997 75.6716 70.9097 75.8016 70.4697C75.9416 70.0197 76.1416 69.6347 76.4016 69.3147C76.6616 68.9947 76.9716 68.7447 77.3316 68.5647C77.7016 68.3847 78.1216 68.2947 78.5916 68.2947C78.9616 68.2947 79.2866 68.3397 79.5666 68.4297C79.8466 68.5197 80.0566 68.6147 80.1966 68.7147V65.2347ZM86.3916 68.2947C87.3316 68.2947 88.0566 68.5897 88.5666 69.1797C89.0766 69.7597 89.3316 70.6447 89.3316 71.8347V72.2697H84.3516C84.4016 72.9897 84.6366 73.5397 85.0566 73.9197C85.4866 74.2897 86.0866 74.4747 86.8566 74.4747C87.2966 74.4747 87.6716 74.4397 87.9816 74.3697C88.2916 74.2997 88.5266 74.2247 88.6866 74.1447L88.8516 75.1947C88.7016 75.2747 88.4316 75.3597 88.0416 75.4497C87.6516 75.5397 87.2116 75.5847 86.7216 75.5847C86.1216 75.5847 85.5916 75.4947 85.1316 75.3147C84.6816 75.1247 84.3066 74.8697 84.0066 74.5497C83.7066 74.2297 83.4816 73.8497 83.3316 73.4097C83.1816 72.9597 83.1066 72.4747 83.1066 71.9547C83.1066 71.3347 83.2016 70.7947 83.3916 70.3347C83.5816 69.8747 83.8316 69.4947 84.1416 69.1947C84.4516 68.8947 84.8016 68.6697 85.1916 68.5197C85.5816 68.3697 85.9816 68.2947 86.3916 68.2947ZM88.0716 71.2647C88.0716 70.6747 87.9166 70.2097 87.6066 69.8697C87.2966 69.5197 86.8866 69.3447 86.3766 69.3447C86.0866 69.3447 85.8216 69.3997 85.5816 69.5097C85.3516 69.6197 85.1516 69.7647 84.9816 69.9447C84.8116 70.1247 84.6766 70.3297 84.5766 70.5597C84.4766 70.7897 84.4116 71.0247 84.3816 71.2647H88.0716ZM102.367 74.4597C102.367 74.7597 102.267 75.0247 102.067 75.2547C101.867 75.4847 101.602 75.5997 101.272 75.5997C100.932 75.5997 100.662 75.4847 100.462 75.2547C100.262 75.0247 100.162 74.7597 100.162 74.4597C100.162 74.1497 100.262 73.8797 100.462 73.6497C100.662 73.4197 100.932 73.3047 101.272 73.3047C101.602 73.3047 101.867 73.4197 102.067 73.6497C102.267 73.8797 102.367 74.1497 102.367 74.4597ZM107.317 77.8947H106.042L110.227 64.9347H111.472L107.317 77.8947ZM117.697 74.7747C117.557 74.8547 117.342 74.9397 117.052 75.0297C116.762 75.1197 116.427 75.1647 116.047 75.1647C115.637 75.1647 115.252 75.0997 114.892 74.9697C114.542 74.8297 114.232 74.6247 113.962 74.3547C113.702 74.0747 113.492 73.7247 113.332 73.3047C113.182 72.8747 113.107 72.3697 113.107 71.7897C113.107 71.2797 113.177 70.8147 113.317 70.3947C113.467 69.9647 113.677 69.5947 113.947 69.2847C114.227 68.9747 114.567 68.7347 114.967 68.5647C115.367 68.3847 115.822 68.2947 116.332 68.2947C116.932 68.2947 117.442 68.3397 117.862 68.4297C118.292 68.5097 118.652 68.5897 118.942 68.6697V74.8797C118.942 75.9597 118.667 76.7397 118.117 77.2197C117.577 77.6997 116.757 77.9397 115.657 77.9397C115.207 77.9397 114.797 77.9047 114.427 77.8347C114.067 77.7647 113.747 77.6797 113.467 77.5797L113.692 76.4847C113.952 76.5947 114.247 76.6847 114.577 76.7547C114.917 76.8247 115.287 76.8597 115.687 76.8597C116.407 76.8597 116.922 76.7147 117.232 76.4247C117.542 76.1347 117.697 75.6647 117.697 75.0147V74.7747ZM117.697 69.5547C117.577 69.5147 117.412 69.4797 117.202 69.4497C116.992 69.4097 116.707 69.3897 116.347 69.3897C115.707 69.3897 115.217 69.6097 114.877 70.0497C114.547 70.4897 114.382 71.0747 114.382 71.8047C114.382 72.2047 114.427 72.5497 114.517 72.8397C114.617 73.1197 114.747 73.3547 114.907 73.5447C115.077 73.7247 115.267 73.8597 115.477 73.9497C115.687 74.0297 115.912 74.0697 116.152 74.0697C116.462 74.0697 116.752 74.0247 117.022 73.9347C117.302 73.8447 117.527 73.7397 117.697 73.6197V69.5547ZM123.892 68.2947C124.832 68.2947 125.557 68.5897 126.067 69.1797C126.577 69.7597 126.832 70.6447 126.832 71.8347V72.2697H121.852C121.902 72.9897 122.137 73.5397 122.557 73.9197C122.987 74.2897 123.587 74.4747 124.357 74.4747C124.797 74.4747 125.172 74.4397 125.482 74.3697C125.792 74.2997 126.027 74.2247 126.187 74.1447L126.352 75.1947C126.202 75.2747 125.932 75.3597 125.542 75.4497C125.152 75.5397 124.712 75.5847 124.222 75.5847C123.622 75.5847 123.092 75.4947 122.632 75.3147C122.182 75.1247 121.807 74.8697 121.507 74.5497C121.207 74.2297 120.982 73.8497 120.832 73.4097C120.682 72.9597 120.607 72.4747 120.607 71.9547C120.607 71.3347 120.702 70.7947 120.892 70.3347C121.082 69.8747 121.332 69.4947 121.642 69.1947C121.952 68.8947 122.302 68.6697 122.692 68.5197C123.082 68.3697 123.482 68.2947 123.892 68.2947ZM125.572 71.2647C125.572 70.6747 125.417 70.2097 125.107 69.8697C124.797 69.5197 124.387 69.3447 123.877 69.3447C123.587 69.3447 123.322 69.3997 123.082 69.5097C122.852 69.6197 122.652 69.7647 122.482 69.9447C122.312 70.1247 122.177 70.3297 122.077 70.5597C121.977 70.7897 121.912 71.0247 121.882 71.2647H125.572ZM131.392 68.2947C132.332 68.2947 133.057 68.5897 133.567 69.1797C134.077 69.7597 134.332 70.6447 134.332 71.8347V72.2697H129.352C129.402 72.9897 129.637 73.5397 130.057 73.9197C130.487 74.2897 131.087 74.4747 131.857 74.4747C132.297 74.4747 132.672 74.4397 132.982 74.3697C133.292 74.2997 133.527 74.2247 133.687 74.1447L133.852 75.1947C133.702 75.2747 133.432 75.3597 133.042 75.4497C132.652 75.5397 132.212 75.5847 131.722 75.5847C131.122 75.5847 130.592 75.4947 130.132 75.3147C129.682 75.1247 129.307 74.8697 129.007 74.5497C128.707 74.2297 128.482 73.8497 128.332 73.4097C128.182 72.9597 128.107 72.4747 128.107 71.9547C128.107 71.3347 128.202 70.7947 128.392 70.3347C128.582 69.8747 128.832 69.4947 129.142 69.1947C129.452 68.8947 129.802 68.6697 130.192 68.5197C130.582 68.3697 130.982 68.2947 131.392 68.2947ZM133.072 71.2647C133.072 70.6747 132.917 70.2097 132.607 69.8697C132.297 69.5197 131.887 69.3447 131.377 69.3447C131.087 69.3447 130.822 69.3997 130.582 69.5097C130.352 69.6197 130.152 69.7647 129.982 69.9447C129.812 70.1247 129.677 70.3297 129.577 70.5597C129.477 70.7897 129.412 71.0247 129.382 71.2647H133.072ZM140.272 73.6797C140.272 73.4297 140.167 73.2247 139.957 73.0647C139.757 72.9047 139.502 72.7647 139.192 72.6447C138.892 72.5247 138.562 72.4097 138.202 72.2997C137.842 72.1797 137.507 72.0347 137.197 71.8647C136.897 71.6947 136.642 71.4847 136.432 71.2347C136.232 70.9847 136.132 70.6597 136.132 70.2597C136.132 69.6997 136.357 69.2347 136.807 68.8647C137.267 68.4847 137.982 68.2947 138.952 68.2947C139.332 68.2947 139.722 68.3247 140.122 68.3847C140.532 68.4347 140.882 68.5047 141.172 68.5947L140.947 69.7047C140.867 69.6647 140.757 69.6247 140.617 69.5847C140.477 69.5347 140.317 69.4947 140.137 69.4647C139.957 69.4247 139.762 69.3947 139.552 69.3747C139.352 69.3547 139.157 69.3447 138.967 69.3447C137.887 69.3447 137.347 69.6397 137.347 70.2297C137.347 70.4397 137.447 70.6197 137.647 70.7697C137.857 70.9097 138.117 71.0397 138.427 71.1597C138.737 71.2797 139.072 71.4047 139.432 71.5347C139.792 71.6547 140.127 71.8047 140.437 71.9847C140.747 72.1647 141.002 72.3847 141.202 72.6447C141.412 72.8947 141.517 73.2147 141.517 73.6047C141.517 74.2347 141.272 74.7247 140.782 75.0747C140.292 75.4147 139.517 75.5847 138.457 75.5847C137.977 75.5847 137.537 75.5447 137.137 75.4647C136.737 75.3847 136.357 75.2647 135.997 75.1047L136.237 73.9797C136.587 74.1397 136.952 74.2747 137.332 74.3847C137.722 74.4847 138.137 74.5347 138.577 74.5347C139.707 74.5347 140.272 74.2497 140.272 73.6797ZM146.392 68.2947C147.332 68.2947 148.057 68.5897 148.567 69.1797C149.077 69.7597 149.332 70.6447 149.332 71.8347V72.2697H144.352C144.402 72.9897 144.637 73.5397 145.057 73.9197C145.487 74.2897 146.087 74.4747 146.857 74.4747C147.297 74.4747 147.672 74.4397 147.982 74.3697C148.292 74.2997 148.527 74.2247 148.687 74.1447L148.852 75.1947C148.702 75.2747 148.432 75.3597 148.042 75.4497C147.652 75.5397 147.212 75.5847 146.722 75.5847C146.122 75.5847 145.592 75.4947 145.132 75.3147C144.682 75.1247 144.307 74.8697 144.007 74.5497C143.707 74.2297 143.482 73.8497 143.332 73.4097C143.182 72.9597 143.107 72.4747 143.107 71.9547C143.107 71.3347 143.202 70.7947 143.392 70.3347C143.582 69.8747 143.832 69.4947 144.142 69.1947C144.452 68.8947 144.802 68.6697 145.192 68.5197C145.582 68.3697 145.982 68.2947 146.392 68.2947ZM148.072 71.2647C148.072 70.6747 147.917 70.2097 147.607 69.8697C147.297 69.5197 146.887 69.3447 146.377 69.3447C146.087 69.3447 145.822 69.3997 145.582 69.5097C145.352 69.6197 145.152 69.7647 144.982 69.9447C144.812 70.1247 144.677 70.3297 144.577 70.5597C144.477 70.7897 144.412 71.0247 144.382 71.2647H148.072ZM155.602 66.1347H156.832V75.4197H155.602V71.0997H151.912V75.4197H150.682V66.1347H151.912V70.0497H155.602V66.1347ZM161.332 74.5347C161.642 74.5347 161.917 74.5247 162.157 74.5047C162.407 74.4847 162.612 74.4597 162.772 74.4297V72.3597C162.612 72.3097 162.417 72.2697 162.187 72.2397C161.967 72.2097 161.732 72.1947 161.482 72.1947C161.252 72.1947 161.027 72.2147 160.807 72.2547C160.587 72.2847 160.392 72.3447 160.222 72.4347C160.052 72.5247 159.912 72.6447 159.802 72.7947C159.692 72.9347 159.637 73.1147 159.637 73.3347C159.637 73.7847 159.787 74.0997 160.087 74.2797C160.397 74.4497 160.812 74.5347 161.332 74.5347ZM161.212 68.2947C161.732 68.2947 162.167 68.3597 162.517 68.4897C162.877 68.6197 163.167 68.7997 163.387 69.0297C163.607 69.2597 163.762 69.5397 163.852 69.8697C163.942 70.1997 163.987 70.5597 163.987 70.9497V75.2997C163.697 75.3497 163.312 75.4097 162.832 75.4797C162.362 75.5497 161.877 75.5847 161.377 75.5847C160.997 75.5847 160.627 75.5497 160.267 75.4797C159.907 75.4197 159.587 75.3097 159.307 75.1497C159.027 74.9797 158.802 74.7497 158.632 74.4597C158.462 74.1697 158.377 73.7997 158.377 73.3497C158.377 72.9497 158.462 72.6147 158.632 72.3447C158.812 72.0647 159.037 71.8397 159.307 71.6697C159.587 71.4997 159.902 71.3797 160.252 71.3097C160.612 71.2297 160.972 71.1897 161.332 71.1897C161.822 71.1897 162.302 71.2447 162.772 71.3547V71.0097C162.772 70.7997 162.747 70.5997 162.697 70.4097C162.657 70.2097 162.572 70.0297 162.442 69.8697C162.322 69.7097 162.152 69.5847 161.932 69.4947C161.722 69.3947 161.447 69.3447 161.107 69.3447C160.677 69.3447 160.302 69.3747 159.982 69.4347C159.662 69.4947 159.417 69.5547 159.247 69.6147L159.097 68.5947C159.267 68.5147 159.547 68.4447 159.937 68.3847C160.337 68.3247 160.762 68.2947 161.212 68.2947ZM165.742 71.9547C165.742 71.3247 165.842 70.7797 166.042 70.3197C166.242 69.8597 166.517 69.4797 166.867 69.1797C167.217 68.8797 167.622 68.6597 168.082 68.5197C168.552 68.3697 169.052 68.2947 169.582 68.2947C169.922 68.2947 170.257 68.3197 170.587 68.3697C170.927 68.4097 171.287 68.4897 171.667 68.6097L171.382 69.6747C171.052 69.5547 170.747 69.4797 170.467 69.4497C170.197 69.4097 169.922 69.3897 169.642 69.3897C169.282 69.3897 168.942 69.4397 168.622 69.5397C168.302 69.6297 168.022 69.7797 167.782 69.9897C167.552 70.1897 167.367 70.4547 167.227 70.7847C167.087 71.1047 167.017 71.4947 167.017 71.9547C167.017 72.3947 167.082 72.7747 167.212 73.0947C167.342 73.4047 167.522 73.6647 167.752 73.8747C167.992 74.0747 168.277 74.2247 168.607 74.3247C168.937 74.4247 169.302 74.4747 169.702 74.4747C170.022 74.4747 170.327 74.4597 170.617 74.4297C170.917 74.3897 171.242 74.3097 171.592 74.1897L171.772 75.2247C171.422 75.3547 171.067 75.4447 170.707 75.4947C170.347 75.5547 169.957 75.5847 169.537 75.5847C168.977 75.5847 168.462 75.5097 167.992 75.3597C167.532 75.1997 167.132 74.9697 166.792 74.6697C166.462 74.3697 166.202 73.9947 166.012 73.5447C165.832 73.0847 165.742 72.5547 165.742 71.9547ZM176.077 71.5947C176.347 71.7947 176.652 72.0497 176.992 72.3597C177.332 72.6597 177.667 72.9847 177.997 73.3347C178.337 73.6847 178.657 74.0447 178.957 74.4147C179.257 74.7747 179.497 75.1097 179.677 75.4197H178.207C178.017 75.1097 177.782 74.7947 177.502 74.4747C177.222 74.1447 176.922 73.8297 176.602 73.5297C176.292 73.2297 175.977 72.9547 175.657 72.7047C175.347 72.4547 175.067 72.2447 174.817 72.0747V75.4197H173.572V65.2347L174.817 65.0247V71.3697C175.367 70.8897 175.917 70.4147 176.467 69.9447C177.017 69.4647 177.512 68.9697 177.952 68.4597H179.407C178.977 68.9697 178.457 69.4947 177.847 70.0347C177.247 70.5747 176.657 71.0947 176.077 71.5947ZM185.272 73.6797C185.272 73.4297 185.167 73.2247 184.957 73.0647C184.757 72.9047 184.502 72.7647 184.192 72.6447C183.892 72.5247 183.562 72.4097 183.202 72.2997C182.842 72.1797 182.507 72.0347 182.197 71.8647C181.897 71.6947 181.642 71.4847 181.432 71.2347C181.232 70.9847 181.132 70.6597 181.132 70.2597C181.132 69.6997 181.357 69.2347 181.807 68.8647C182.267 68.4847 182.982 68.2947 183.952 68.2947C184.332 68.2947 184.722 68.3247 185.122 68.3847C185.532 68.4347 185.882 68.5047 186.172 68.5947L185.947 69.7047C185.867 69.6647 185.757 69.6247 185.617 69.5847C185.477 69.5347 185.317 69.4947 185.137 69.4647C184.957 69.4247 184.762 69.3947 184.552 69.3747C184.352 69.3547 184.157 69.3447 183.967 69.3447C182.887 69.3447 182.347 69.6397 182.347 70.2297C182.347 70.4397 182.447 70.6197 182.647 70.7697C182.857 70.9097 183.117 71.0397 183.427 71.1597C183.737 71.2797 184.072 71.4047 184.432 71.5347C184.792 71.6547 185.127 71.8047 185.437 71.9847C185.747 72.1647 186.002 72.3847 186.202 72.6447C186.412 72.8947 186.517 73.2147 186.517 73.6047C186.517 74.2347 186.272 74.7247 185.782 75.0747C185.292 75.4147 184.517 75.5847 183.457 75.5847C182.977 75.5847 182.537 75.5447 182.137 75.4647C181.737 75.3847 181.357 75.2647 180.997 75.1047L181.237 73.9797C181.587 74.1397 181.952 74.2747 182.332 74.3847C182.722 74.4847 183.137 74.5347 183.577 74.5347C184.707 74.5347 185.272 74.2497 185.272 73.6797ZM192.367 74.4597C192.367 74.7597 192.267 75.0247 192.067 75.2547C191.867 75.4847 191.602 75.5997 191.272 75.5997C190.932 75.5997 190.662 75.4847 190.462 75.2547C190.262 75.0247 190.162 74.7597 190.162 74.4597C190.162 74.1497 190.262 73.8797 190.462 73.6497C190.662 73.4197 190.932 73.3047 191.272 73.3047C191.602 73.3047 191.867 73.4197 192.067 73.6497C192.267 73.8797 192.367 74.1497 192.367 74.4597ZM199.627 67.3797C199.367 67.3797 199.142 67.2897 198.952 67.1097C198.762 66.9297 198.667 66.6847 198.667 66.3747C198.667 66.0647 198.762 65.8197 198.952 65.6397C199.142 65.4597 199.367 65.3697 199.627 65.3697C199.897 65.3697 200.122 65.4597 200.302 65.6397C200.492 65.8197 200.587 66.0647 200.587 66.3747C200.587 66.6847 200.492 66.9297 200.302 67.1097C200.122 67.2897 199.897 67.3797 199.627 67.3797ZM196.717 69.4947V68.4597H200.767V75.3447C200.767 75.8247 200.697 76.2297 200.557 76.5597C200.427 76.8997 200.247 77.1747 200.017 77.3847C199.797 77.5947 199.537 77.7447 199.237 77.8347C198.947 77.9247 198.637 77.9697 198.307 77.9697C197.927 77.9697 197.542 77.9297 197.152 77.8497C196.772 77.7697 196.412 77.6447 196.072 77.4747L196.447 76.4247C196.697 76.5447 196.972 76.6447 197.272 76.7247C197.582 76.8147 197.877 76.8597 198.157 76.8597C198.557 76.8597 198.887 76.7547 199.147 76.5447C199.407 76.3447 199.537 75.9497 199.537 75.3597V69.4947H196.717ZM207.772 73.6797C207.772 73.4297 207.667 73.2247 207.457 73.0647C207.257 72.9047 207.002 72.7647 206.692 72.6447C206.392 72.5247 206.062 72.4097 205.702 72.2997C205.342 72.1797 205.007 72.0347 204.697 71.8647C204.397 71.6947 204.142 71.4847 203.932 71.2347C203.732 70.9847 203.632 70.6597 203.632 70.2597C203.632 69.6997 203.857 69.2347 204.307 68.8647C204.767 68.4847 205.482 68.2947 206.452 68.2947C206.832 68.2947 207.222 68.3247 207.622 68.3847C208.032 68.4347 208.382 68.5047 208.672 68.5947L208.447 69.7047C208.367 69.6647 208.257 69.6247 208.117 69.5847C207.977 69.5347 207.817 69.4947 207.637 69.4647C207.457 69.4247 207.262 69.3947 207.052 69.3747C206.852 69.3547 206.657 69.3447 206.467 69.3447C205.387 69.3447 204.847 69.6397 204.847 70.2297C204.847 70.4397 204.947 70.6197 205.147 70.7697C205.357 70.9097 205.617 71.0397 205.927 71.1597C206.237 71.2797 206.572 71.4047 206.932 71.5347C207.292 71.6547 207.627 71.8047 207.937 71.9847C208.247 72.1647 208.502 72.3847 208.702 72.6447C208.912 72.8947 209.017 73.2147 209.017 73.6047C209.017 74.2347 208.772 74.7247 208.282 75.0747C207.792 75.4147 207.017 75.5847 205.957 75.5847C205.477 75.5847 205.037 75.5447 204.637 75.4647C204.237 75.3847 203.857 75.2647 203.497 75.1047L203.737 73.9797C204.087 74.1397 204.452 74.2747 204.832 74.3847C205.222 74.4847 205.637 74.5347 206.077 74.5347C207.207 74.5347 207.772 74.2497 207.772 73.6797ZM48.1416 99.0797C48.1416 98.9447 48.1266 98.8847 48.0666 98.8847L47.7216 99.0497C47.7216 98.9747 47.6766 98.9297 47.6016 98.8997L47.4816 98.8847C47.3766 98.8847 47.3316 98.8997 47.1816 98.9897C47.1366 98.8997 47.0766 98.7947 47.0316 98.7047C46.6416 97.9547 46.2366 96.8297 46.0566 96.3347C45.9666 96.0797 45.8766 95.5547 45.7716 94.7597C45.8916 94.8347 45.9816 94.8647 46.0266 94.8647C46.0866 94.8647 46.1616 94.7597 46.2216 94.5497C46.2516 94.5947 46.3116 94.6097 46.3866 94.6097C46.4316 94.6097 46.4916 94.5947 46.5216 94.5497L46.7616 94.1897L47.0316 94.2797H47.0466C47.0766 94.2797 47.1216 94.2347 47.1966 94.1897C47.2716 94.1447 47.3316 94.1147 47.3766 94.1147L47.4216 94.1297C47.6616 94.2497 47.8266 94.4597 47.9016 94.7897C48.0816 95.5547 48.2466 95.9297 48.4416 95.9297C48.6066 95.9297 48.8316 95.7347 49.0716 95.3597C49.3116 94.9847 49.5516 94.4747 49.8216 93.8597C49.8366 93.9797 49.8516 94.0397 49.8816 94.0397C49.9716 94.0397 50.1966 93.5147 50.7516 92.6297C51.5766 91.2947 53.6166 88.7297 54.1416 88.3697C54.5316 88.0997 54.8316 87.8447 55.0416 87.6197C55.0116 87.7697 54.9816 87.8747 54.9816 87.9197C54.9816 87.9647 55.0116 87.9797 55.0416 87.9797L55.4616 87.7697V87.8297C55.4616 87.9047 55.4766 87.9497 55.5216 87.9497C55.5816 87.9497 55.8216 87.7097 55.8516 87.6197L55.8216 87.8297L56.3316 87.5297L56.2116 87.7997C56.3616 87.6947 56.4816 87.6347 56.5566 87.6347C56.6316 87.6347 56.6766 87.7547 56.6766 87.8297C56.6766 87.9497 56.5716 88.1147 56.4066 88.3247C56.2266 88.5647 55.7766 89.0297 54.4266 90.5747C53.8416 91.2347 51.2466 94.7597 50.7516 95.5997L49.8216 97.1747C49.4166 97.8497 49.1616 98.2847 49.0266 98.4497C48.8916 98.6147 48.7266 98.7797 48.5316 98.9297L48.3966 98.8547L48.2766 98.9297L48.1416 99.0797ZM71.8431 97.3697V98.4197H66.3081V89.1347H67.5381V97.3697H71.8431ZM79.3431 94.9397C79.3431 95.4897 79.2631 95.9897 79.1031 96.4397C78.9531 96.8797 78.7381 97.2597 78.4581 97.5797C78.1781 97.8997 77.8431 98.1497 77.4531 98.3297C77.0631 98.4997 76.6381 98.5847 76.1781 98.5847C75.7281 98.5847 75.3081 98.4997 74.9181 98.3297C74.5381 98.1497 74.2081 97.8997 73.9281 97.5797C73.6481 97.2597 73.4281 96.8797 73.2681 96.4397C73.1181 95.9897 73.0431 95.4897 73.0431 94.9397C73.0431 94.3897 73.1181 93.8897 73.2681 93.4397C73.4281 92.9897 73.6481 92.6097 73.9281 92.2997C74.2081 91.9797 74.5381 91.7347 74.9181 91.5647C75.3081 91.3847 75.7281 91.2947 76.1781 91.2947C76.6381 91.2947 77.0631 91.3847 77.4531 91.5647C77.8431 91.7347 78.1781 91.9797 78.4581 92.2997C78.7381 92.6097 78.9531 92.9897 79.1031 93.4397C79.2631 93.8897 79.3431 94.3897 79.3431 94.9397ZM78.0681 94.9397C78.0681 94.1497 77.8981 93.5297 77.5581 93.0797C77.2181 92.6197 76.7581 92.3897 76.1781 92.3897C75.6081 92.3897 75.1531 92.6197 74.8131 93.0797C74.4831 93.5297 74.3181 94.1497 74.3181 94.9397C74.3181 95.7197 74.4831 96.3397 74.8131 96.7997C75.1531 97.2497 75.6081 97.4747 76.1781 97.4747C76.7581 97.4747 77.2181 97.2497 77.5581 96.7997C77.8981 96.3397 78.0681 95.7197 78.0681 94.9397ZM83.7681 97.5347C84.0781 97.5347 84.3531 97.5247 84.5931 97.5047C84.8431 97.4847 85.0481 97.4597 85.2081 97.4297V95.3597C85.0481 95.3097 84.8531 95.2697 84.6231 95.2397C84.4031 95.2097 84.1681 95.1947 83.9181 95.1947C83.6881 95.1947 83.4631 95.2147 83.2431 95.2547C83.0231 95.2847 82.8281 95.3447 82.6581 95.4347C82.4881 95.5247 82.3481 95.6447 82.2381 95.7947C82.1281 95.9347 82.0731 96.1147 82.0731 96.3347C82.0731 96.7847 82.2231 97.0997 82.5231 97.2797C82.8331 97.4497 83.2481 97.5347 83.7681 97.5347ZM83.6481 91.2947C84.1681 91.2947 84.6031 91.3597 84.9531 91.4897C85.3131 91.6197 85.6031 91.7997 85.8231 92.0297C86.0431 92.2597 86.1981 92.5397 86.2881 92.8697C86.3781 93.1997 86.4231 93.5597 86.4231 93.9497V98.2997C86.1331 98.3497 85.7481 98.4097 85.2681 98.4797C84.7981 98.5497 84.3131 98.5847 83.8131 98.5847C83.4331 98.5847 83.0631 98.5497 82.7031 98.4797C82.3431 98.4197 82.0231 98.3097 81.7431 98.1497C81.4631 97.9797 81.2381 97.7497 81.0681 97.4597C80.8981 97.1697 80.8131 96.7997 80.8131 96.3497C80.8131 95.9497 80.8981 95.6147 81.0681 95.3447C81.2481 95.0647 81.4731 94.8397 81.7431 94.6697C82.0231 94.4997 82.3381 94.3797 82.6881 94.3097C83.0481 94.2297 83.4081 94.1897 83.7681 94.1897C84.2581 94.1897 84.7381 94.2447 85.2081 94.3547V94.0097C85.2081 93.7997 85.1831 93.5997 85.1331 93.4097C85.0931 93.2097 85.0081 93.0297 84.8781 92.8697C84.7581 92.7097 84.5881 92.5847 84.3681 92.4947C84.1581 92.3947 83.8831 92.3447 83.5431 92.3447C83.1131 92.3447 82.7381 92.3747 82.4181 92.4347C82.0981 92.4947 81.8531 92.5547 81.6831 92.6147L81.5331 91.5947C81.7031 91.5147 81.9831 91.4447 82.3731 91.3847C82.7731 91.3247 83.1981 91.2947 83.6481 91.2947ZM92.6331 92.9297C92.4931 92.7997 92.2881 92.6797 92.0181 92.5697C91.7481 92.4497 91.4681 92.3897 91.1781 92.3897C90.8481 92.3897 90.5631 92.4547 90.3231 92.5847C90.0931 92.7147 89.9031 92.8947 89.7531 93.1247C89.6031 93.3447 89.4931 93.6147 89.4231 93.9347C89.3531 94.2447 89.3181 94.5797 89.3181 94.9397C89.3181 95.7497 89.5081 96.3747 89.8881 96.8147C90.2681 97.2547 90.7631 97.4747 91.3731 97.4747C91.6831 97.4747 91.9431 97.4597 92.1531 97.4297C92.3731 97.3997 92.5331 97.3697 92.6331 97.3397V92.9297ZM92.6331 88.2347L93.8781 88.0247V98.2247C93.6081 98.3047 93.2631 98.3847 92.8431 98.4647C92.4231 98.5447 91.9331 98.5847 91.3731 98.5847C90.8731 98.5847 90.4181 98.4997 90.0081 98.3297C89.5981 98.1597 89.2481 97.9197 88.9581 97.6097C88.6681 97.2897 88.4431 96.9047 88.2831 96.4547C88.1231 96.0047 88.0431 95.4997 88.0431 94.9397C88.0431 94.3997 88.1081 93.9097 88.2381 93.4697C88.3781 93.0197 88.5781 92.6347 88.8381 92.3147C89.0981 91.9947 89.4081 91.7447 89.7681 91.5647C90.1381 91.3847 90.5581 91.2947 91.0281 91.2947C91.3981 91.2947 91.7231 91.3397 92.0031 91.4297C92.2831 91.5197 92.4931 91.6147 92.6331 91.7147V88.2347ZM98.8281 91.2947C99.7681 91.2947 100.493 91.5897 101.003 92.1797C101.513 92.7597 101.768 93.6447 101.768 94.8347V95.2697H96.7881C96.8381 95.9897 97.0731 96.5397 97.4931 96.9197C97.9231 97.2897 98.5231 97.4747 99.2931 97.4747C99.7331 97.4747 100.108 97.4397 100.418 97.3697C100.728 97.2997 100.963 97.2247 101.123 97.1447L101.288 98.1947C101.138 98.2747 100.868 98.3597 100.478 98.4497C100.088 98.5397 99.6481 98.5847 99.1581 98.5847C98.5581 98.5847 98.0281 98.4947 97.5681 98.3147C97.1181 98.1247 96.7431 97.8697 96.4431 97.5497C96.1431 97.2297 95.9181 96.8497 95.7681 96.4097C95.6181 95.9597 95.5431 95.4747 95.5431 94.9547C95.5431 94.3347 95.6381 93.7947 95.8281 93.3347C96.0181 92.8747 96.2681 92.4947 96.5781 92.1947C96.8881 91.8947 97.2381 91.6697 97.6281 91.5197C98.0181 91.3697 98.4181 91.2947 98.8281 91.2947ZM100.508 94.2647C100.508 93.6747 100.353 93.2097 100.043 92.8697C99.7331 92.5197 99.3231 92.3447 98.8131 92.3447C98.5231 92.3447 98.2581 92.3997 98.0181 92.5097C97.7881 92.6197 97.5881 92.7647 97.4181 92.9447C97.2481 93.1247 97.1131 93.3297 97.0131 93.5597C96.9131 93.7897 96.8481 94.0247 96.8181 94.2647H100.508ZM107.633 92.9297C107.493 92.7997 107.288 92.6797 107.018 92.5697C106.748 92.4497 106.468 92.3897 106.178 92.3897C105.848 92.3897 105.563 92.4547 105.323 92.5847C105.093 92.7147 104.903 92.8947 104.753 93.1247C104.603 93.3447 104.493 93.6147 104.423 93.9347C104.353 94.2447 104.318 94.5797 104.318 94.9397C104.318 95.7497 104.508 96.3747 104.888 96.8147C105.268 97.2547 105.763 97.4747 106.373 97.4747C106.683 97.4747 106.943 97.4597 107.153 97.4297C107.373 97.3997 107.533 97.3697 107.633 97.3397V92.9297ZM107.633 88.2347L108.878 88.0247V98.2247C108.608 98.3047 108.263 98.3847 107.843 98.4647C107.423 98.5447 106.933 98.5847 106.373 98.5847C105.873 98.5847 105.418 98.4997 105.008 98.3297C104.598 98.1597 104.248 97.9197 103.958 97.6097C103.668 97.2897 103.443 96.9047 103.283 96.4547C103.123 96.0047 103.043 95.4997 103.043 94.9397C103.043 94.3997 103.108 93.9097 103.238 93.4697C103.378 93.0197 103.578 92.6347 103.838 92.3147C104.098 91.9947 104.408 91.7447 104.768 91.5647C105.138 91.3847 105.558 91.2947 106.028 91.2947C106.398 91.2947 106.723 91.3397 107.003 91.4297C107.283 91.5197 107.493 91.6147 107.633 91.7147V88.2347ZM122.633 97.7747C122.493 97.8547 122.278 97.9397 121.988 98.0297C121.698 98.1197 121.363 98.1647 120.983 98.1647C120.573 98.1647 120.188 98.0997 119.828 97.9697C119.478 97.8297 119.168 97.6247 118.898 97.3547C118.638 97.0747 118.428 96.7247 118.268 96.3047C118.118 95.8747 118.043 95.3697 118.043 94.7897C118.043 94.2797 118.113 93.8147 118.253 93.3947C118.403 92.9647 118.613 92.5947 118.883 92.2847C119.163 91.9747 119.503 91.7347 119.903 91.5647C120.303 91.3847 120.758 91.2947 121.268 91.2947C121.868 91.2947 122.378 91.3397 122.798 91.4297C123.228 91.5097 123.588 91.5897 123.878 91.6697V97.8797C123.878 98.9597 123.603 99.7397 123.053 100.22C122.513 100.7 121.693 100.94 120.593 100.94C120.143 100.94 119.733 100.905 119.363 100.835C119.003 100.765 118.683 100.68 118.403 100.58L118.628 99.4847C118.888 99.5947 119.183 99.6847 119.513 99.7547C119.853 99.8247 120.223 99.8597 120.623 99.8597C121.343 99.8597 121.858 99.7147 122.168 99.4247C122.478 99.1347 122.633 98.6647 122.633 98.0147V97.7747ZM122.633 92.5547C122.513 92.5147 122.348 92.4797 122.138 92.4497C121.928 92.4097 121.643 92.3897 121.283 92.3897C120.643 92.3897 120.153 92.6097 119.813 93.0497C119.483 93.4897 119.318 94.0747 119.318 94.8047C119.318 95.2047 119.363 95.5497 119.453 95.8397C119.553 96.1197 119.683 96.3547 119.843 96.5447C120.013 96.7247 120.203 96.8597 120.413 96.9497C120.623 97.0297 120.848 97.0697 121.088 97.0697C121.398 97.0697 121.688 97.0247 121.958 96.9347C122.238 96.8447 122.463 96.7397 122.633 96.6197V92.5547ZM128.828 91.2947C129.768 91.2947 130.493 91.5897 131.003 92.1797C131.513 92.7597 131.768 93.6447 131.768 94.8347V95.2697H126.788C126.838 95.9897 127.073 96.5397 127.493 96.9197C127.923 97.2897 128.523 97.4747 129.293 97.4747C129.733 97.4747 130.108 97.4397 130.418 97.3697C130.728 97.2997 130.963 97.2247 131.123 97.1447L131.288 98.1947C131.138 98.2747 130.868 98.3597 130.478 98.4497C130.088 98.5397 129.648 98.5847 129.158 98.5847C128.558 98.5847 128.028 98.4947 127.568 98.3147C127.118 98.1247 126.743 97.8697 126.443 97.5497C126.143 97.2297 125.918 96.8497 125.768 96.4097C125.618 95.9597 125.543 95.4747 125.543 94.9547C125.543 94.3347 125.638 93.7947 125.828 93.3347C126.018 92.8747 126.268 92.4947 126.578 92.1947C126.888 91.8947 127.238 91.6697 127.628 91.5197C128.018 91.3697 128.418 91.2947 128.828 91.2947ZM130.508 94.2647C130.508 93.6747 130.353 93.2097 130.043 92.8697C129.733 92.5197 129.323 92.3447 128.813 92.3447C128.523 92.3447 128.258 92.3997 128.018 92.5097C127.788 92.6197 127.588 92.7647 127.418 92.9447C127.248 93.1247 127.113 93.3297 127.013 93.5597C126.913 93.7897 126.848 94.0247 126.818 94.2647H130.508ZM136.328 91.2947C137.268 91.2947 137.993 91.5897 138.503 92.1797C139.013 92.7597 139.268 93.6447 139.268 94.8347V95.2697H134.288C134.338 95.9897 134.573 96.5397 134.993 96.9197C135.423 97.2897 136.023 97.4747 136.793 97.4747C137.233 97.4747 137.608 97.4397 137.918 97.3697C138.228 97.2997 138.463 97.2247 138.623 97.1447L138.788 98.1947C138.638 98.2747 138.368 98.3597 137.978 98.4497C137.588 98.5397 137.148 98.5847 136.658 98.5847C136.058 98.5847 135.528 98.4947 135.068 98.3147C134.618 98.1247 134.243 97.8697 133.943 97.5497C133.643 97.2297 133.418 96.8497 133.268 96.4097C133.118 95.9597 133.043 95.4747 133.043 94.9547C133.043 94.3347 133.138 93.7947 133.328 93.3347C133.518 92.8747 133.768 92.4947 134.078 92.1947C134.388 91.8947 134.738 91.6697 135.128 91.5197C135.518 91.3697 135.918 91.2947 136.328 91.2947ZM138.008 94.2647C138.008 93.6747 137.853 93.2097 137.543 92.8697C137.233 92.5197 136.823 92.3447 136.313 92.3447C136.023 92.3447 135.758 92.3997 135.518 92.5097C135.288 92.6197 135.088 92.7647 134.918 92.9447C134.748 93.1247 134.613 93.3297 134.513 93.5597C134.413 93.7897 134.348 94.0247 134.318 94.2647H138.008ZM145.208 96.6797C145.208 96.4297 145.103 96.2247 144.893 96.0647C144.693 95.9047 144.438 95.7647 144.128 95.6447C143.828 95.5247 143.498 95.4097 143.138 95.2997C142.778 95.1797 142.443 95.0347 142.133 94.8647C141.833 94.6947 141.578 94.4847 141.368 94.2347C141.168 93.9847 141.068 93.6597 141.068 93.2597C141.068 92.6997 141.293 92.2347 141.743 91.8647C142.203 91.4847 142.918 91.2947 143.888 91.2947C144.268 91.2947 144.658 91.3247 145.058 91.3847C145.468 91.4347 145.818 91.5047 146.108 91.5947L145.883 92.7047C145.803 92.6647 145.693 92.6247 145.553 92.5847C145.413 92.5347 145.253 92.4947 145.073 92.4647C144.893 92.4247 144.698 92.3947 144.488 92.3747C144.288 92.3547 144.093 92.3447 143.903 92.3447C142.823 92.3447 142.283 92.6397 142.283 93.2297C142.283 93.4397 142.383 93.6197 142.583 93.7697C142.793 93.9097 143.053 94.0397 143.363 94.1597C143.673 94.2797 144.008 94.4047 144.368 94.5347C144.728 94.6547 145.063 94.8047 145.373 94.9847C145.683 95.1647 145.938 95.3847 146.138 95.6447C146.348 95.8947 146.453 96.2147 146.453 96.6047C146.453 97.2347 146.208 97.7247 145.718 98.0747C145.228 98.4147 144.453 98.5847 143.393 98.5847C142.913 98.5847 142.473 98.5447 142.073 98.4647C141.673 98.3847 141.293 98.2647 140.933 98.1047L141.173 96.9797C141.523 97.1397 141.888 97.2747 142.268 97.3847C142.658 97.4847 143.073 97.5347 143.513 97.5347C144.643 97.5347 145.208 97.2497 145.208 96.6797ZM151.328 91.2947C152.268 91.2947 152.993 91.5897 153.503 92.1797C154.013 92.7597 154.268 93.6447 154.268 94.8347V95.2697H149.288C149.338 95.9897 149.573 96.5397 149.993 96.9197C150.423 97.2897 151.023 97.4747 151.793 97.4747C152.233 97.4747 152.608 97.4397 152.918 97.3697C153.228 97.2997 153.463 97.2247 153.623 97.1447L153.788 98.1947C153.638 98.2747 153.368 98.3597 152.978 98.4497C152.588 98.5397 152.148 98.5847 151.658 98.5847C151.058 98.5847 150.528 98.4947 150.068 98.3147C149.618 98.1247 149.243 97.8697 148.943 97.5497C148.643 97.2297 148.418 96.8497 148.268 96.4097C148.118 95.9597 148.043 95.4747 148.043 94.9547C148.043 94.3347 148.138 93.7947 148.328 93.3347C148.518 92.8747 148.768 92.4947 149.078 92.1947C149.388 91.8947 149.738 91.6697 150.128 91.5197C150.518 91.3697 150.918 91.2947 151.328 91.2947ZM153.008 94.2647C153.008 93.6747 152.853 93.2097 152.543 92.8697C152.233 92.5197 151.823 92.3447 151.313 92.3447C151.023 92.3447 150.758 92.3997 150.518 92.5097C150.288 92.6197 150.088 92.7647 149.918 92.9447C149.748 93.1247 149.613 93.3297 149.513 93.5597C149.413 93.7897 149.348 94.0247 149.318 94.2647H153.008ZM160.538 89.1347H161.768V98.4197H160.538V94.0997H156.848V98.4197H155.618V89.1347H156.848V93.0497H160.538V89.1347ZM166.268 97.5347C166.578 97.5347 166.853 97.5247 167.093 97.5047C167.343 97.4847 167.548 97.4597 167.708 97.4297V95.3597C167.548 95.3097 167.353 95.2697 167.123 95.2397C166.903 95.2097 166.668 95.1947 166.418 95.1947C166.188 95.1947 165.963 95.2147 165.743 95.2547C165.523 95.2847 165.328 95.3447 165.158 95.4347C164.988 95.5247 164.848 95.6447 164.738 95.7947C164.628 95.9347 164.573 96.1147 164.573 96.3347C164.573 96.7847 164.723 97.0997 165.023 97.2797C165.333 97.4497 165.748 97.5347 166.268 97.5347ZM166.148 91.2947C166.668 91.2947 167.103 91.3597 167.453 91.4897C167.813 91.6197 168.103 91.7997 168.323 92.0297C168.543 92.2597 168.698 92.5397 168.788 92.8697C168.878 93.1997 168.923 93.5597 168.923 93.9497V98.2997C168.633 98.3497 168.248 98.4097 167.768 98.4797C167.298 98.5497 166.813 98.5847 166.313 98.5847C165.933 98.5847 165.563 98.5497 165.203 98.4797C164.843 98.4197 164.523 98.3097 164.243 98.1497C163.963 97.9797 163.738 97.7497 163.568 97.4597C163.398 97.1697 163.313 96.7997 163.313 96.3497C163.313 95.9497 163.398 95.6147 163.568 95.3447C163.748 95.0647 163.973 94.8397 164.243 94.6697C164.523 94.4997 164.838 94.3797 165.188 94.3097C165.548 94.2297 165.908 94.1897 166.268 94.1897C166.758 94.1897 167.238 94.2447 167.708 94.3547V94.0097C167.708 93.7997 167.683 93.5997 167.633 93.4097C167.593 93.2097 167.508 93.0297 167.378 92.8697C167.258 92.7097 167.088 92.5847 166.868 92.4947C166.658 92.3947 166.383 92.3447 166.043 92.3447C165.613 92.3447 165.238 92.3747 164.918 92.4347C164.598 92.4947 164.353 92.5547 164.183 92.6147L164.033 91.5947C164.203 91.5147 164.483 91.4447 164.873 91.3847C165.273 91.3247 165.698 91.2947 166.148 91.2947ZM170.678 94.9547C170.678 94.3247 170.778 93.7797 170.978 93.3197C171.178 92.8597 171.453 92.4797 171.803 92.1797C172.153 91.8797 172.558 91.6597 173.018 91.5197C173.488 91.3697 173.988 91.2947 174.518 91.2947C174.858 91.2947 175.193 91.3197 175.523 91.3697C175.863 91.4097 176.223 91.4897 176.603 91.6097L176.318 92.6747C175.988 92.5547 175.683 92.4797 175.403 92.4497C175.133 92.4097 174.858 92.3897 174.578 92.3897C174.218 92.3897 173.878 92.4397 173.558 92.5397C173.238 92.6297 172.958 92.7797 172.718 92.9897C172.488 93.1897 172.303 93.4547 172.163 93.7847C172.023 94.1047 171.953 94.4947 171.953 94.9547C171.953 95.3947 172.018 95.7747 172.148 96.0947C172.278 96.4047 172.458 96.6647 172.688 96.8747C172.928 97.0747 173.213 97.2247 173.543 97.3247C173.873 97.4247 174.238 97.4747 174.638 97.4747C174.958 97.4747 175.263 97.4597 175.553 97.4297C175.853 97.3897 176.178 97.3097 176.528 97.1897L176.708 98.2247C176.358 98.3547 176.003 98.4447 175.643 98.4947C175.283 98.5547 174.893 98.5847 174.473 98.5847C173.913 98.5847 173.398 98.5097 172.928 98.3597C172.468 98.1997 172.068 97.9697 171.728 97.6697C171.398 97.3697 171.138 96.9947 170.948 96.5447C170.768 96.0847 170.678 95.5547 170.678 94.9547ZM181.013 94.5947C181.283 94.7947 181.588 95.0497 181.928 95.3597C182.268 95.6597 182.603 95.9847 182.933 96.3347C183.273 96.6847 183.593 97.0447 183.893 97.4147C184.193 97.7747 184.433 98.1097 184.613 98.4197H183.143C182.953 98.1097 182.718 97.7947 182.438 97.4747C182.158 97.1447 181.858 96.8297 181.538 96.5297C181.228 96.2297 180.913 95.9547 180.593 95.7047C180.283 95.4547 180.003 95.2447 179.753 95.0747V98.4197H178.508V88.2347L179.753 88.0247V94.3697C180.303 93.8897 180.853 93.4147 181.403 92.9447C181.953 92.4647 182.448 91.9697 182.888 91.4597H184.343C183.913 91.9697 183.393 92.4947 182.783 93.0347C182.183 93.5747 181.593 94.0947 181.013 94.5947ZM190.208 96.6797C190.208 96.4297 190.103 96.2247 189.893 96.0647C189.693 95.9047 189.438 95.7647 189.128 95.6447C188.828 95.5247 188.498 95.4097 188.138 95.2997C187.778 95.1797 187.443 95.0347 187.133 94.8647C186.833 94.6947 186.578 94.4847 186.368 94.2347C186.168 93.9847 186.068 93.6597 186.068 93.2597C186.068 92.6997 186.293 92.2347 186.743 91.8647C187.203 91.4847 187.918 91.2947 188.888 91.2947C189.268 91.2947 189.658 91.3247 190.058 91.3847C190.468 91.4347 190.818 91.5047 191.108 91.5947L190.883 92.7047C190.803 92.6647 190.693 92.6247 190.553 92.5847C190.413 92.5347 190.253 92.4947 190.073 92.4647C189.893 92.4247 189.698 92.3947 189.488 92.3747C189.288 92.3547 189.093 92.3447 188.903 92.3447C187.823 92.3447 187.283 92.6397 187.283 93.2297C187.283 93.4397 187.383 93.6197 187.583 93.7697C187.793 93.9097 188.053 94.0397 188.363 94.1597C188.673 94.2797 189.008 94.4047 189.368 94.5347C189.728 94.6547 190.063 94.8047 190.373 94.9847C190.683 95.1647 190.938 95.3847 191.138 95.6447C191.348 95.8947 191.453 96.2147 191.453 96.6047C191.453 97.2347 191.208 97.7247 190.718 98.0747C190.228 98.4147 189.453 98.5847 188.393 98.5847C187.913 98.5847 187.473 98.5447 187.073 98.4647C186.673 98.3847 186.293 98.2647 185.933 98.1047L186.173 96.9797C186.523 97.1397 186.888 97.2747 187.268 97.3847C187.658 97.4847 188.073 97.5347 188.513 97.5347C189.643 97.5347 190.208 97.2497 190.208 96.6797ZM197.303 97.4597C197.303 97.7597 197.203 98.0247 197.003 98.2547C196.803 98.4847 196.538 98.5997 196.208 98.5997C195.868 98.5997 195.598 98.4847 195.398 98.2547C195.198 98.0247 195.098 97.7597 195.098 97.4597C195.098 97.1497 195.198 96.8797 195.398 96.6497C195.598 96.4197 195.868 96.3047 196.208 96.3047C196.538 96.3047 196.803 96.4197 197.003 96.6497C197.203 96.8797 197.303 97.1497 197.303 97.4597ZM204.563 90.3797C204.303 90.3797 204.078 90.2897 203.888 90.1097C203.698 89.9297 203.603 89.6847 203.603 89.3747C203.603 89.0647 203.698 88.8197 203.888 88.6397C204.078 88.4597 204.303 88.3697 204.563 88.3697C204.833 88.3697 205.058 88.4597 205.238 88.6397C205.428 88.8197 205.523 89.0647 205.523 89.3747C205.523 89.6847 205.428 89.9297 205.238 90.1097C205.058 90.2897 204.833 90.3797 204.563 90.3797ZM201.653 92.4947V91.4597H205.703V98.3447C205.703 98.8247 205.633 99.2297 205.493 99.5597C205.363 99.8997 205.183 100.175 204.953 100.385C204.733 100.595 204.473 100.745 204.173 100.835C203.883 100.925 203.573 100.97 203.243 100.97C202.863 100.97 202.478 100.93 202.088 100.85C201.708 100.77 201.348 100.645 201.008 100.475L201.383 99.4247C201.633 99.5447 201.908 99.6447 202.208 99.7247C202.518 99.8147 202.813 99.8597 203.093 99.8597C203.493 99.8597 203.823 99.7547 204.083 99.5447C204.343 99.3447 204.473 98.9497 204.473 98.3597V92.4947H201.653ZM212.708 96.6797C212.708 96.4297 212.603 96.2247 212.393 96.0647C212.193 95.9047 211.938 95.7647 211.628 95.6447C211.328 95.5247 210.998 95.4097 210.638 95.2997C210.278 95.1797 209.943 95.0347 209.633 94.8647C209.333 94.6947 209.078 94.4847 208.868 94.2347C208.668 93.9847 208.568 93.6597 208.568 93.2597C208.568 92.6997 208.793 92.2347 209.243 91.8647C209.703 91.4847 210.418 91.2947 211.388 91.2947C211.768 91.2947 212.158 91.3247 212.558 91.3847C212.968 91.4347 213.318 91.5047 213.608 91.5947L213.383 92.7047C213.303 92.6647 213.193 92.6247 213.053 92.5847C212.913 92.5347 212.753 92.4947 212.573 92.4647C212.393 92.4247 212.198 92.3947 211.988 92.3747C211.788 92.3547 211.593 92.3447 211.403 92.3447C210.323 92.3447 209.783 92.6397 209.783 93.2297C209.783 93.4397 209.883 93.6197 210.083 93.7697C210.293 93.9097 210.553 94.0397 210.863 94.1597C211.173 94.2797 211.508 94.4047 211.868 94.5347C212.228 94.6547 212.563 94.8047 212.873 94.9847C213.183 95.1647 213.438 95.3847 213.638 95.6447C213.848 95.8947 213.953 96.2147 213.953 96.6047C213.953 97.2347 213.708 97.7247 213.218 98.0747C212.728 98.4147 211.953 98.5847 210.893 98.5847C210.413 98.5847 209.973 98.5447 209.573 98.4647C209.173 98.3847 208.793 98.2647 208.433 98.1047L208.673 96.9797C209.023 97.1397 209.388 97.2747 209.768 97.3847C210.158 97.4847 210.573 97.5347 211.013 97.5347C212.143 97.5347 212.708 97.2497 212.708 96.6797ZM46.3716 121.42V112.135H51.5766V113.185H47.6016V116.035H51.0816V117.085H47.6016V120.37H51.9066V121.42H46.3716ZM53.5716 114.655C54.0216 114.545 54.4666 114.46 54.9066 114.4C55.3566 114.34 55.7766 114.31 56.1666 114.31C57.0966 114.31 57.7966 114.55 58.2666 115.03C58.7466 115.51 58.9866 116.28 58.9866 117.34V121.42H57.7566V117.565C57.7566 117.115 57.7166 116.75 57.6366 116.47C57.5566 116.19 57.4416 115.975 57.2916 115.825C57.1516 115.665 56.9766 115.555 56.7666 115.495C56.5666 115.435 56.3466 115.405 56.1066 115.405C55.9066 115.405 55.6916 115.42 55.4616 115.45C55.2416 115.47 55.0266 115.5 54.8166 115.54V121.42H53.5716V114.655ZM64.6266 113.38C64.3666 113.38 64.1416 113.29 63.9516 113.11C63.7616 112.93 63.6666 112.685 63.6666 112.375C63.6666 112.065 63.7616 111.82 63.9516 111.64C64.1416 111.46 64.3666 111.37 64.6266 111.37C64.8966 111.37 65.1216 111.46 65.3016 111.64C65.4916 111.82 65.5866 112.065 65.5866 112.375C65.5866 112.685 65.4916 112.93 65.3016 113.11C65.1216 113.29 64.8966 113.38 64.6266 113.38ZM61.7166 115.495V114.46H65.7666V121.345C65.7666 121.825 65.6966 122.23 65.5566 122.56C65.4266 122.9 65.2466 123.175 65.0166 123.385C64.7966 123.595 64.5366 123.745 64.2366 123.835C63.9466 123.925 63.6366 123.97 63.3066 123.97C62.9266 123.97 62.5416 123.93 62.1516 123.85C61.7716 123.77 61.4116 123.645 61.0716 123.475L61.4466 122.425C61.6966 122.545 61.9716 122.645 62.2716 122.725C62.5816 122.815 62.8766 122.86 63.1566 122.86C63.5566 122.86 63.8866 122.755 64.1466 122.545C64.4066 122.345 64.5366 121.95 64.5366 121.36V115.495H61.7166ZM74.4066 117.94C74.4066 118.49 74.3266 118.99 74.1666 119.44C74.0166 119.88 73.8016 120.26 73.5216 120.58C73.2416 120.9 72.9066 121.15 72.5166 121.33C72.1266 121.5 71.7016 121.585 71.2416 121.585C70.7916 121.585 70.3716 121.5 69.9816 121.33C69.6016 121.15 69.2716 120.9 68.9916 120.58C68.7116 120.26 68.4916 119.88 68.3316 119.44C68.1816 118.99 68.1066 118.49 68.1066 117.94C68.1066 117.39 68.1816 116.89 68.3316 116.44C68.4916 115.99 68.7116 115.61 68.9916 115.3C69.2716 114.98 69.6016 114.735 69.9816 114.565C70.3716 114.385 70.7916 114.295 71.2416 114.295C71.7016 114.295 72.1266 114.385 72.5166 114.565C72.9066 114.735 73.2416 114.98 73.5216 115.3C73.8016 115.61 74.0166 115.99 74.1666 116.44C74.3266 116.89 74.4066 117.39 74.4066 117.94ZM73.1316 117.94C73.1316 117.15 72.9616 116.53 72.6216 116.08C72.2816 115.62 71.8216 115.39 71.2416 115.39C70.6716 115.39 70.2166 115.62 69.8766 116.08C69.5466 116.53 69.3816 117.15 69.3816 117.94C69.3816 118.72 69.5466 119.34 69.8766 119.8C70.2166 120.25 70.6716 120.475 71.2416 120.475C71.8216 120.475 72.2816 120.25 72.6216 119.8C72.9616 119.34 73.1316 118.72 73.1316 117.94ZM75.7716 122.725C75.8616 122.775 75.9866 122.815 76.1466 122.845C76.3166 122.875 76.4716 122.89 76.6116 122.89C77.1016 122.89 77.4816 122.78 77.7516 122.56C78.0316 122.35 78.2866 122 78.5166 121.51C77.9566 120.45 77.4316 119.315 76.9416 118.105C76.4516 116.885 76.0466 115.67 75.7266 114.46H77.0766C77.1766 114.86 77.2916 115.295 77.4216 115.765C77.5616 116.225 77.7166 116.7 77.8866 117.19C78.0566 117.68 78.2366 118.175 78.4266 118.675C78.6266 119.165 78.8366 119.635 79.0566 120.085C79.2166 119.625 79.3666 119.17 79.5066 118.72C79.6466 118.27 79.7766 117.82 79.8966 117.37C80.0166 116.91 80.1366 116.445 80.2566 115.975C80.3766 115.495 80.5016 114.99 80.6316 114.46H81.9216C81.6016 115.76 81.2416 117.02 80.8416 118.24C80.4516 119.46 80.0316 120.59 79.5816 121.63C79.4116 122.03 79.2266 122.375 79.0266 122.665C78.8366 122.955 78.6266 123.195 78.3966 123.385C78.1666 123.575 77.9066 123.715 77.6166 123.805C77.3266 123.895 76.9966 123.94 76.6266 123.94C76.4366 123.94 76.2266 123.915 75.9966 123.865C75.7766 123.815 75.6266 123.77 75.5466 123.73L75.7716 122.725ZM91.0716 121.42V111.235L92.3166 111.025V114.565C92.5166 114.485 92.7416 114.425 92.9916 114.385C93.2416 114.335 93.4866 114.31 93.7266 114.31C94.2566 114.31 94.6966 114.39 95.0466 114.55C95.4066 114.7 95.6916 114.915 95.9016 115.195C96.1116 115.475 96.2616 115.81 96.3516 116.2C96.4416 116.59 96.4866 117.02 96.4866 117.49V121.42H95.2566V117.76C95.2566 116.9 95.1366 116.295 94.8966 115.945C94.6566 115.585 94.2266 115.405 93.6066 115.405C93.3466 115.405 93.0916 115.435 92.8416 115.495C92.6016 115.545 92.4266 115.595 92.3166 115.645V121.42H91.0716ZM101.332 120.535C101.642 120.535 101.917 120.525 102.157 120.505C102.407 120.485 102.612 120.46 102.772 120.43V118.36C102.612 118.31 102.417 118.27 102.187 118.24C101.967 118.21 101.732 118.195 101.482 118.195C101.252 118.195 101.027 118.215 100.807 118.255C100.587 118.285 100.392 118.345 100.222 118.435C100.052 118.525 99.9116 118.645 99.8016 118.795C99.6916 118.935 99.6366 119.115 99.6366 119.335C99.6366 119.785 99.7866 120.1 100.087 120.28C100.397 120.45 100.812 120.535 101.332 120.535ZM101.212 114.295C101.732 114.295 102.167 114.36 102.517 114.49C102.877 114.62 103.167 114.8 103.387 115.03C103.607 115.26 103.762 115.54 103.852 115.87C103.942 116.2 103.987 116.56 103.987 116.95V121.3C103.697 121.35 103.312 121.41 102.832 121.48C102.362 121.55 101.877 121.585 101.377 121.585C100.997 121.585 100.627 121.55 100.267 121.48C99.9066 121.42 99.5866 121.31 99.3066 121.15C99.0266 120.98 98.8016 120.75 98.6316 120.46C98.4616 120.17 98.3766 119.8 98.3766 119.35C98.3766 118.95 98.4616 118.615 98.6316 118.345C98.8116 118.065 99.0366 117.84 99.3066 117.67C99.5866 117.5 99.9016 117.38 100.252 117.31C100.612 117.23 100.972 117.19 101.332 117.19C101.822 117.19 102.302 117.245 102.772 117.355V117.01C102.772 116.8 102.747 116.6 102.697 116.41C102.657 116.21 102.572 116.03 102.442 115.87C102.322 115.71 102.152 115.585 101.932 115.495C101.722 115.395 101.447 115.345 101.107 115.345C100.677 115.345 100.302 115.375 99.9816 115.435C99.6616 115.495 99.4166 115.555 99.2466 115.615L99.0966 114.595C99.2666 114.515 99.5466 114.445 99.9366 114.385C100.337 114.325 100.762 114.295 101.212 114.295ZM105.742 117.955C105.742 117.325 105.842 116.78 106.042 116.32C106.242 115.86 106.517 115.48 106.867 115.18C107.217 114.88 107.622 114.66 108.082 114.52C108.552 114.37 109.052 114.295 109.582 114.295C109.922 114.295 110.257 114.32 110.587 114.37C110.927 114.41 111.287 114.49 111.667 114.61L111.382 115.675C111.052 115.555 110.747 115.48 110.467 115.45C110.197 115.41 109.922 115.39 109.642 115.39C109.282 115.39 108.942 115.44 108.622 115.54C108.302 115.63 108.022 115.78 107.782 115.99C107.552 116.19 107.367 116.455 107.227 116.785C107.087 117.105 107.017 117.495 107.017 117.955C107.017 118.395 107.082 118.775 107.212 119.095C107.342 119.405 107.522 119.665 107.752 119.875C107.992 120.075 108.277 120.225 108.607 120.325C108.937 120.425 109.302 120.475 109.702 120.475C110.022 120.475 110.327 120.46 110.617 120.43C110.917 120.39 111.242 120.31 111.592 120.19L111.772 121.225C111.422 121.355 111.067 121.445 110.707 121.495C110.347 121.555 109.957 121.585 109.537 121.585C108.977 121.585 108.462 121.51 107.992 121.36C107.532 121.2 107.132 120.97 106.792 120.67C106.462 120.37 106.202 119.995 106.012 119.545C105.832 119.085 105.742 118.555 105.742 117.955ZM116.077 117.595C116.347 117.795 116.652 118.05 116.992 118.36C117.332 118.66 117.667 118.985 117.997 119.335C118.337 119.685 118.657 120.045 118.957 120.415C119.257 120.775 119.497 121.11 119.677 121.42H118.207C118.017 121.11 117.782 120.795 117.502 120.475C117.222 120.145 116.922 119.83 116.602 119.53C116.292 119.23 115.977 118.955 115.657 118.705C115.347 118.455 115.067 118.245 114.817 118.075V121.42H113.572V111.235L114.817 111.025V117.37C115.367 116.89 115.917 116.415 116.467 115.945C117.017 115.465 117.512 114.97 117.952 114.46H119.407C118.977 114.97 118.457 115.495 117.847 116.035C117.247 116.575 116.657 117.095 116.077 117.595ZM123.142 113.38C122.882 113.38 122.657 113.29 122.467 113.11C122.277 112.93 122.182 112.685 122.182 112.375C122.182 112.065 122.277 111.82 122.467 111.64C122.657 111.46 122.882 111.37 123.142 111.37C123.412 111.37 123.637 111.46 123.817 111.64C124.007 111.82 124.102 112.065 124.102 112.375C124.102 112.685 124.007 112.93 123.817 113.11C123.637 113.29 123.412 113.38 123.142 113.38ZM122.827 115.495H120.817V114.46H124.057V118.735C124.057 119.425 124.152 119.89 124.342 120.13C124.532 120.36 124.817 120.475 125.197 120.475C125.487 120.475 125.752 120.44 125.992 120.37C126.242 120.3 126.437 120.225 126.577 120.145L126.757 121.195C126.697 121.225 126.612 121.265 126.502 121.315C126.392 121.355 126.262 121.395 126.112 121.435C125.972 121.475 125.812 121.51 125.632 121.54C125.462 121.57 125.282 121.585 125.092 121.585C124.652 121.585 124.287 121.525 123.997 121.405C123.707 121.285 123.472 121.105 123.292 120.865C123.122 120.625 123.002 120.33 122.932 119.98C122.862 119.62 122.827 119.205 122.827 118.735V115.495ZM128.572 114.655C129.022 114.545 129.467 114.46 129.907 114.4C130.357 114.34 130.777 114.31 131.167 114.31C132.097 114.31 132.797 114.55 133.267 115.03C133.747 115.51 133.987 116.28 133.987 117.34V121.42H132.757V117.565C132.757 117.115 132.717 116.75 132.637 116.47C132.557 116.19 132.442 115.975 132.292 115.825C132.152 115.665 131.977 115.555 131.767 115.495C131.567 115.435 131.347 115.405 131.107 115.405C130.907 115.405 130.692 115.42 130.462 115.45C130.242 115.47 130.027 115.5 129.817 115.54V121.42H128.572V114.655ZM140.197 120.775C140.057 120.855 139.842 120.94 139.552 121.03C139.262 121.12 138.927 121.165 138.547 121.165C138.137 121.165 137.752 121.1 137.392 120.97C137.042 120.83 136.732 120.625 136.462 120.355C136.202 120.075 135.992 119.725 135.832 119.305C135.682 118.875 135.607 118.37 135.607 117.79C135.607 117.28 135.677 116.815 135.817 116.395C135.967 115.965 136.177 115.595 136.447 115.285C136.727 114.975 137.067 114.735 137.467 114.565C137.867 114.385 138.322 114.295 138.832 114.295C139.432 114.295 139.942 114.34 140.362 114.43C140.792 114.51 141.152 114.59 141.442 114.67V120.88C141.442 121.96 141.167 122.74 140.617 123.22C140.077 123.7 139.257 123.94 138.157 123.94C137.707 123.94 137.297 123.905 136.927 123.835C136.567 123.765 136.247 123.68 135.967 123.58L136.192 122.485C136.452 122.595 136.747 122.685 137.077 122.755C137.417 122.825 137.787 122.86 138.187 122.86C138.907 122.86 139.422 122.715 139.732 122.425C140.042 122.135 140.197 121.665 140.197 121.015V120.775ZM140.197 115.555C140.077 115.515 139.912 115.48 139.702 115.45C139.492 115.41 139.207 115.39 138.847 115.39C138.207 115.39 137.717 115.61 137.377 116.05C137.047 116.49 136.882 117.075 136.882 117.805C136.882 118.205 136.927 118.55 137.017 118.84C137.117 119.12 137.247 119.355 137.407 119.545C137.577 119.725 137.767 119.86 137.977 119.95C138.187 120.03 138.412 120.07 138.652 120.07C138.962 120.07 139.252 120.025 139.522 119.935C139.802 119.845 140.027 119.74 140.197 119.62V115.555ZM146.902 114.655C146.902 115.025 146.897 115.365 146.887 115.675C146.877 115.985 146.857 116.28 146.827 116.56C146.807 116.84 146.782 117.12 146.752 117.4C146.722 117.67 146.692 117.955 146.662 118.255H145.807C145.777 117.955 145.747 117.67 145.717 117.4C145.687 117.12 145.657 116.84 145.627 116.56C145.607 116.28 145.592 115.985 145.582 115.675C145.572 115.365 145.567 115.025 145.567 114.655V112.135H146.902V114.655ZM146.227 121.6C145.957 121.6 145.722 121.51 145.522 121.33C145.322 121.14 145.222 120.89 145.222 120.58C145.222 120.27 145.322 120.025 145.522 119.845C145.722 119.655 145.957 119.56 146.227 119.56C146.507 119.56 146.742 119.655 146.932 119.845C147.132 120.025 147.232 120.27 147.232 120.58C147.232 120.89 147.132 121.14 146.932 121.33C146.742 121.51 146.507 121.6 146.227 121.6ZM157.507 122.47H172.507V107.47H157.507V122.47Z" fill="white"/>
<defs>
<filter id="filter0_d_80_38" x="0" y="0" width="569" height="344" filterUnits="userSpaceOnUse" color-interpolation-filters="sRGB">
<feFlood flood-opacity="0" result="BackgroundImageFix"/>
<feColorMatrix in="SourceAlpha" type="matrix" values="0 0 0 0 0 0 0 0 0 0 0 0 0 0 0 0 0 0 127 0" result="hardAlpha"/>
<feMorphology radius="1" operator="dilate" in="SourceAlpha" result="effect1_dropShadow_80_38"/>
<feOffset dx="4" dy="4"/>
<feGaussianBlur stdDeviation="2"/>
<feComposite in2="hardAlpha" operator="out"/>
<feColorMatrix type="matrix" values="0 0 0 0 0 0 0 0 0 0 0 0 0 0 0 0 0 0 1 0"/>
<feBlend mode="normal" in2="BackgroundImageFix" result="effect1_dropShadow_80_38"/>
<feBlend mode="normal" in="SourceGraphic" in2="effect1_dropShadow_80_38" result="shape"/>
</filter>
</defs>
</svg>
