<svg width="1512" height="321" viewBox="0 0 1512 321" fill="none" xmlns="http://www.w3.org/2000/svg">
<path d="M1512 128.4L1470 117.667C1428 107.334 1344 85.2656 1260 112.35C1176 139.434 1092 213.666 1008 251.483C924 288.9 840 288.9 756 251.483C672 213.666 588 139.434 504 133.717C420 128.4 336 192.6 252 192.6C168 192.6 84.0001 128.4 42.0001 96.3L0.00012207 64.2V0H42.0001C84.0001 0 168 0 252 0C336 0 420 0 504 0C588 0 672 0 756 0C840 0 924 0 1008 0C1092 0 1176 0 1260 0C1344 0 1428 0 1470 0H1512V128.4Z" fill="black"/>
</svg>
